G04 (created by PCBNEW (2013-may-18)-stable) date sob, 8 lis 2014, 01:31:07*
%MOIN*%
G04 Gerber Fmt 3.4, Leading zero omitted, Abs format*
%FSLAX34Y34*%
G01*
G70*
G90*
G04 APERTURE LIST*
%ADD10C,0.00393701*%
%ADD11R,0.055X0.055*%
%ADD12C,0.055*%
%ADD13R,0.06X0.06*%
%ADD14C,0.06*%
%ADD15C,0.066*%
%ADD16C,0.16*%
%ADD17C,0.0590551*%
%ADD18C,0.011811*%
G04 APERTURE END LIST*
G54D10*
G54D11*
X92019Y-50204D03*
G54D12*
X93019Y-50204D03*
X93019Y-49204D03*
G54D11*
X97531Y-46562D03*
G54D12*
X98531Y-46562D03*
X98531Y-45562D03*
X99531Y-58842D03*
X99531Y-60842D03*
X96531Y-58842D03*
X96531Y-60842D03*
X94807Y-58842D03*
X94807Y-60842D03*
X91807Y-58842D03*
X91807Y-60842D03*
X90082Y-58842D03*
X90082Y-60842D03*
X87082Y-58842D03*
X87082Y-60842D03*
X87007Y-50862D03*
X87007Y-53862D03*
X94858Y-49212D03*
X97858Y-49212D03*
X100492Y-61342D03*
X100492Y-58342D03*
X92496Y-45570D03*
X95496Y-45570D03*
X85826Y-50862D03*
X85826Y-53862D03*
X85039Y-55094D03*
X85039Y-58094D03*
X88188Y-50106D03*
X88188Y-49106D03*
X95956Y-57086D03*
X96956Y-57086D03*
X87114Y-46062D03*
X86114Y-46062D03*
X96562Y-51279D03*
X95562Y-51279D03*
X98220Y-51279D03*
X99220Y-51279D03*
G54D13*
X109448Y-58980D03*
G54D14*
X109448Y-57980D03*
X109448Y-56980D03*
X109448Y-55980D03*
G54D13*
X83464Y-48212D03*
G54D14*
X83464Y-49212D03*
X83464Y-50212D03*
G54D13*
X109448Y-54149D03*
G54D14*
X109448Y-53149D03*
X109448Y-52149D03*
G54D13*
X87114Y-44488D03*
G54D14*
X86114Y-44488D03*
G54D13*
X106799Y-44488D03*
G54D14*
X105799Y-44488D03*
G54D13*
X83464Y-58078D03*
G54D14*
X83464Y-57078D03*
G54D12*
X87507Y-48318D03*
G54D11*
X86507Y-48318D03*
G54D12*
X86507Y-49318D03*
G54D15*
X102460Y-59440D03*
X102460Y-60440D03*
G54D12*
X90956Y-55830D03*
X91956Y-55830D03*
X92956Y-55830D03*
X93956Y-55830D03*
X94956Y-55830D03*
X95956Y-55830D03*
X96956Y-55830D03*
X97956Y-55830D03*
X98956Y-55830D03*
X99956Y-55830D03*
X100956Y-55830D03*
X101956Y-55830D03*
X102956Y-55830D03*
G54D11*
X89956Y-55830D03*
G54D12*
X102956Y-52830D03*
X101956Y-52830D03*
X100956Y-52830D03*
X99956Y-52830D03*
X98956Y-52830D03*
X97956Y-52830D03*
X96956Y-52830D03*
X95956Y-52830D03*
X94956Y-52830D03*
X93956Y-52830D03*
X92956Y-52830D03*
X91956Y-52830D03*
X90956Y-52830D03*
X89956Y-52830D03*
G54D16*
X84251Y-44881D03*
X108661Y-44881D03*
X108661Y-61417D03*
X84251Y-61417D03*
G54D17*
X90944Y-48228D03*
X88188Y-55807D03*
X84055Y-52165D03*
X84055Y-55118D03*
G54D18*
X90944Y-50295D02*
X90944Y-48228D01*
X87893Y-53346D02*
X90944Y-50295D01*
X87893Y-55511D02*
X87893Y-53346D01*
X88188Y-55807D02*
X87893Y-55511D01*
X84055Y-55118D02*
X84055Y-52165D01*
M02*
