M48
;DRILL file {Pcbnew (2013-may-18)-stable} date sob, 8 lis 2014, 01:06:39
;FORMAT={-:-/ absolute / metric / decimal}
FMAT,2
METRIC,TZ
T1C0.813
T2C1.000
T3C1.016
T4C3.048
%
G90
G05
M71
T1
X216.Y-139.94
X216.Y-147.56
X218.Y-129.19
X218.Y-136.81
X218.73Y-117.
X219.73Y-122.73
X219.73Y-125.27
X221.Y-129.19
X221.Y-136.81
X221.19Y-149.46
X221.19Y-154.54
X221.27Y-117.
X222.27Y-122.73
X224.Y-124.73
X224.Y-127.27
X228.49Y-134.19
X228.49Y-141.81
X228.81Y-149.46
X228.81Y-154.54
X231.03Y-134.19
X231.03Y-141.81
X233.19Y-149.46
X233.19Y-154.54
X233.57Y-134.19
X233.57Y-141.81
X233.73Y-127.52
X234.94Y-115.75
X236.11Y-134.19
X236.11Y-141.81
X236.27Y-124.98
X236.27Y-127.52
X238.65Y-134.19
X238.65Y-141.81
X240.81Y-149.46
X240.81Y-154.54
X240.94Y-125.
X241.19Y-134.19
X241.19Y-141.81
X242.56Y-115.75
X242.73Y-130.25
X243.73Y-134.19
X243.73Y-141.81
X243.73Y-145.
X245.19Y-149.46
X245.19Y-154.54
X245.27Y-130.25
X246.27Y-134.19
X246.27Y-141.81
X246.27Y-145.
X247.73Y-118.27
X248.56Y-125.
X248.81Y-134.19
X248.81Y-141.81
X249.48Y-130.25
X250.27Y-115.73
X250.27Y-118.27
X251.35Y-134.19
X251.35Y-141.81
X252.02Y-130.25
X252.81Y-149.46
X252.81Y-154.54
X253.89Y-134.19
X253.89Y-141.81
X255.25Y-148.19
X255.25Y-155.81
X256.43Y-134.19
X256.43Y-141.81
X258.97Y-134.19
X258.97Y-141.81
X260.25Y-150.98
X260.25Y-153.52
X261.51Y-134.19
X261.51Y-141.81
T2
X213.5Y-132.5
X213.5Y-140.
X224.Y-141.75
X231.Y-122.5
T3
X212.Y-122.46
X212.Y-125.
X212.Y-127.54
X212.Y-144.98
X212.Y-147.52
X218.73Y-113.
X221.27Y-113.
X268.73Y-113.
X271.27Y-113.
X278.Y-132.46
X278.Y-135.
X278.Y-137.54
X278.Y-142.19
X278.Y-144.73
X278.Y-147.27
X278.Y-149.81
T4
X214.Y-114.
X214.Y-156.
X276.Y-114.
X276.Y-156.
T0
M30
