G04 (created by PCBNEW (2013-may-18)-stable) date sob, 8 lis 2014, 01:31:07*
%MOIN*%
G04 Gerber Fmt 3.4, Leading zero omitted, Abs format*
%FSLAX34Y34*%
G01*
G70*
G90*
G04 APERTURE LIST*
%ADD10C,0.00393701*%
%ADD11C,0.011811*%
%ADD12R,0.055X0.055*%
%ADD13C,0.055*%
%ADD14R,0.06X0.06*%
%ADD15C,0.06*%
%ADD16C,0.066*%
%ADD17C,0.16*%
%ADD18C,0.0590551*%
%ADD19C,0.0393701*%
%ADD20C,0.01*%
G04 APERTURE END LIST*
G54D10*
G54D11*
X106552Y-50337D02*
X106552Y-50928D01*
X106552Y-50365D02*
X106496Y-50337D01*
X106383Y-50337D01*
X106327Y-50365D01*
X106299Y-50393D01*
X106271Y-50449D01*
X106271Y-50618D01*
X106299Y-50674D01*
X106327Y-50703D01*
X106383Y-50731D01*
X106496Y-50731D01*
X106552Y-50703D01*
X106017Y-50731D02*
X106017Y-50337D01*
X106017Y-50140D02*
X106046Y-50168D01*
X106017Y-50196D01*
X105989Y-50168D01*
X106017Y-50140D01*
X106017Y-50196D01*
X105511Y-50703D02*
X105568Y-50731D01*
X105680Y-50731D01*
X105736Y-50703D01*
X105764Y-50646D01*
X105764Y-50421D01*
X105736Y-50365D01*
X105680Y-50337D01*
X105568Y-50337D01*
X105511Y-50365D01*
X105483Y-50421D01*
X105483Y-50478D01*
X105764Y-50534D01*
X104977Y-50703D02*
X105033Y-50731D01*
X105146Y-50731D01*
X105202Y-50703D01*
X105230Y-50674D01*
X105258Y-50618D01*
X105258Y-50449D01*
X105230Y-50393D01*
X105202Y-50365D01*
X105146Y-50337D01*
X105033Y-50337D01*
X104977Y-50365D01*
X104780Y-50337D02*
X104640Y-50731D01*
X104499Y-50337D02*
X104640Y-50731D01*
X104696Y-50871D01*
X104724Y-50899D01*
X104780Y-50928D01*
X104274Y-50731D02*
X104274Y-50140D01*
X104218Y-50506D02*
X104049Y-50731D01*
X104049Y-50337D02*
X104274Y-50562D01*
G54D12*
X92019Y-50204D03*
G54D13*
X93019Y-50204D03*
X93019Y-49204D03*
G54D12*
X97531Y-46562D03*
G54D13*
X98531Y-46562D03*
X98531Y-45562D03*
X99531Y-58842D03*
X99531Y-60842D03*
X96531Y-58842D03*
X96531Y-60842D03*
X94807Y-58842D03*
X94807Y-60842D03*
X91807Y-58842D03*
X91807Y-60842D03*
X90082Y-58842D03*
X90082Y-60842D03*
X87082Y-58842D03*
X87082Y-60842D03*
X87007Y-50862D03*
X87007Y-53862D03*
X94858Y-49212D03*
X97858Y-49212D03*
X100492Y-61342D03*
X100492Y-58342D03*
X92496Y-45570D03*
X95496Y-45570D03*
X85826Y-50862D03*
X85826Y-53862D03*
X85039Y-55094D03*
X85039Y-58094D03*
X88188Y-50106D03*
X88188Y-49106D03*
X95956Y-57086D03*
X96956Y-57086D03*
X87114Y-46062D03*
X86114Y-46062D03*
X96562Y-51279D03*
X95562Y-51279D03*
X98220Y-51279D03*
X99220Y-51279D03*
G54D14*
X109448Y-58980D03*
G54D15*
X109448Y-57980D03*
X109448Y-56980D03*
X109448Y-55980D03*
G54D14*
X83464Y-48212D03*
G54D15*
X83464Y-49212D03*
X83464Y-50212D03*
G54D14*
X109448Y-54149D03*
G54D15*
X109448Y-53149D03*
X109448Y-52149D03*
G54D14*
X87114Y-44488D03*
G54D15*
X86114Y-44488D03*
G54D14*
X106799Y-44488D03*
G54D15*
X105799Y-44488D03*
G54D14*
X83464Y-58078D03*
G54D15*
X83464Y-57078D03*
G54D13*
X87507Y-48318D03*
G54D12*
X86507Y-48318D03*
G54D13*
X86507Y-49318D03*
G54D16*
X102460Y-59440D03*
X102460Y-60440D03*
G54D13*
X90956Y-55830D03*
X91956Y-55830D03*
X92956Y-55830D03*
X93956Y-55830D03*
X94956Y-55830D03*
X95956Y-55830D03*
X96956Y-55830D03*
X97956Y-55830D03*
X98956Y-55830D03*
X99956Y-55830D03*
X100956Y-55830D03*
X101956Y-55830D03*
X102956Y-55830D03*
G54D12*
X89956Y-55830D03*
G54D13*
X102956Y-52830D03*
X101956Y-52830D03*
X100956Y-52830D03*
X99956Y-52830D03*
X98956Y-52830D03*
X97956Y-52830D03*
X96956Y-52830D03*
X95956Y-52830D03*
X94956Y-52830D03*
X93956Y-52830D03*
X92956Y-52830D03*
X91956Y-52830D03*
X90956Y-52830D03*
X89956Y-52830D03*
G54D17*
X84251Y-44881D03*
X108661Y-44881D03*
X108661Y-61417D03*
X84251Y-61417D03*
G54D18*
X90944Y-48228D03*
X88188Y-55807D03*
X84055Y-52165D03*
X84055Y-55118D03*
G54D19*
X87114Y-44488D02*
X87114Y-46062D01*
X87114Y-46062D02*
X87507Y-46456D01*
X87507Y-46456D02*
X87507Y-48318D01*
X87114Y-44488D02*
X105799Y-44488D01*
X98531Y-45562D02*
X106307Y-45562D01*
X106799Y-45070D02*
X106799Y-44488D01*
X106307Y-45562D02*
X106799Y-45070D01*
G54D11*
X85023Y-58078D02*
X85039Y-58094D01*
X83464Y-58078D02*
X85023Y-58078D01*
X85826Y-53862D02*
X84374Y-53862D01*
X83464Y-52952D02*
X83464Y-50212D01*
X84374Y-53862D02*
X83464Y-52952D01*
X109448Y-58980D02*
X108685Y-58980D01*
X100901Y-57775D02*
X98956Y-55830D01*
X107480Y-57775D02*
X100901Y-57775D01*
X108685Y-58980D02*
X107480Y-57775D01*
X109448Y-57980D02*
X108570Y-57980D01*
X101507Y-57381D02*
X99956Y-55830D01*
X107972Y-57381D02*
X101507Y-57381D01*
X108570Y-57980D02*
X107972Y-57381D01*
X109448Y-56980D02*
X102106Y-56980D01*
X102106Y-56980D02*
X100956Y-55830D01*
X101956Y-55830D02*
X101956Y-55992D01*
X107503Y-55980D02*
X109448Y-55980D01*
X106889Y-56594D02*
X107503Y-55980D01*
X102559Y-56594D02*
X106889Y-56594D01*
X101956Y-55992D02*
X102559Y-56594D01*
X102956Y-55830D02*
X105094Y-55830D01*
X106775Y-54149D02*
X109448Y-54149D01*
X105094Y-55830D02*
X106775Y-54149D01*
X101956Y-52830D02*
X101956Y-52472D01*
X102279Y-52149D02*
X109448Y-52149D01*
X101956Y-52472D02*
X102279Y-52149D01*
X102956Y-52830D02*
X102956Y-52858D01*
X103248Y-53149D02*
X109448Y-53149D01*
X102956Y-52858D02*
X103248Y-53149D01*
G54D19*
X97858Y-49212D02*
X97858Y-50917D01*
X97858Y-50917D02*
X98220Y-51279D01*
X97956Y-52830D02*
X97956Y-51543D01*
X97956Y-51543D02*
X98220Y-51279D01*
G54D11*
X93019Y-50204D02*
X93019Y-50893D01*
X93019Y-50893D02*
X94956Y-52830D01*
X100492Y-58342D02*
X101362Y-58342D01*
X101362Y-58342D02*
X102460Y-59440D01*
X91956Y-55830D02*
X91956Y-55976D01*
X99925Y-61909D02*
X100492Y-61342D01*
X87204Y-61909D02*
X99925Y-61909D01*
X86417Y-61122D02*
X87204Y-61909D01*
X86417Y-58562D02*
X86417Y-61122D01*
X87106Y-57874D02*
X86417Y-58562D01*
X90059Y-57874D02*
X87106Y-57874D01*
X91956Y-55976D02*
X90059Y-57874D01*
X90956Y-55830D02*
X90956Y-56188D01*
X92496Y-46677D02*
X92496Y-45570D01*
X90944Y-48228D02*
X92496Y-46677D01*
X89074Y-56692D02*
X88188Y-55807D01*
X90452Y-56692D02*
X89074Y-56692D01*
X90956Y-56188D02*
X90452Y-56692D01*
X96531Y-58842D02*
X96145Y-58842D01*
X94956Y-57653D02*
X94956Y-55830D01*
X96145Y-58842D02*
X94956Y-57653D01*
X96531Y-58842D02*
X99531Y-58842D01*
X90082Y-58842D02*
X90665Y-58842D01*
X92956Y-56551D02*
X92956Y-55830D01*
X90665Y-58842D02*
X92956Y-56551D01*
X87082Y-58842D02*
X90082Y-58842D01*
X94291Y-58842D02*
X94291Y-56165D01*
X94291Y-56165D02*
X93956Y-55830D01*
X91807Y-58842D02*
X94291Y-58842D01*
X94291Y-58842D02*
X94807Y-58842D01*
X87007Y-53862D02*
X88114Y-53862D01*
X89956Y-55704D02*
X89956Y-55830D01*
X88114Y-53862D02*
X89956Y-55704D01*
X96562Y-51279D02*
X96562Y-52437D01*
X96562Y-52437D02*
X96956Y-52830D01*
X95496Y-45570D02*
X97539Y-45570D01*
X97539Y-45570D02*
X98531Y-46562D01*
X85039Y-55094D02*
X84078Y-55094D01*
X85358Y-50862D02*
X85826Y-50862D01*
X84055Y-52165D02*
X85358Y-50862D01*
X84078Y-55094D02*
X84055Y-55118D01*
G54D19*
X95956Y-55830D02*
X95956Y-55700D01*
X88188Y-53248D02*
X88188Y-50106D01*
X89763Y-54822D02*
X88188Y-53248D01*
X95078Y-54822D02*
X89763Y-54822D01*
X95956Y-55700D02*
X95078Y-54822D01*
X93019Y-49204D02*
X94850Y-49204D01*
X94850Y-49204D02*
X94858Y-49212D01*
X88188Y-50106D02*
X89854Y-50106D01*
X89854Y-50106D02*
X90755Y-49204D01*
X90755Y-49204D02*
X93019Y-49204D01*
G54D11*
X87007Y-50862D02*
X85826Y-50862D01*
X86507Y-49318D02*
X83570Y-49318D01*
X83570Y-49318D02*
X83464Y-49212D01*
G54D19*
X95956Y-57086D02*
X95956Y-55830D01*
X87007Y-50196D02*
X87007Y-49818D01*
X87007Y-49818D02*
X86507Y-49318D01*
X87007Y-50862D02*
X87007Y-50196D01*
X87098Y-50106D02*
X88188Y-50106D01*
X87007Y-50196D02*
X87098Y-50106D01*
G54D10*
G36*
X109956Y-62712D02*
X109711Y-62712D01*
X109711Y-61209D01*
X109552Y-60823D01*
X109256Y-60527D01*
X108871Y-60367D01*
X108453Y-60367D01*
X108067Y-60526D01*
X107771Y-60821D01*
X107611Y-61207D01*
X107611Y-61625D01*
X107770Y-62011D01*
X108065Y-62306D01*
X108451Y-62467D01*
X108869Y-62467D01*
X109255Y-62307D01*
X109551Y-62012D01*
X109711Y-61627D01*
X109711Y-61209D01*
X109711Y-62712D01*
X103045Y-62712D01*
X103045Y-60529D01*
X103034Y-60299D01*
X102966Y-60135D01*
X102868Y-60104D01*
X102531Y-60440D01*
X102868Y-60777D01*
X102966Y-60746D01*
X103045Y-60529D01*
X103045Y-62712D01*
X102797Y-62712D01*
X102797Y-60848D01*
X102460Y-60511D01*
X102389Y-60582D01*
X102389Y-60440D01*
X102052Y-60104D01*
X101954Y-60135D01*
X101875Y-60352D01*
X101886Y-60582D01*
X101954Y-60746D01*
X102052Y-60777D01*
X102389Y-60440D01*
X102389Y-60582D01*
X102123Y-60848D01*
X102154Y-60947D01*
X102371Y-61025D01*
X102602Y-61015D01*
X102766Y-60947D01*
X102797Y-60848D01*
X102797Y-62712D01*
X85302Y-62712D01*
X85302Y-61209D01*
X85142Y-60823D01*
X84847Y-60527D01*
X84461Y-60367D01*
X84044Y-60367D01*
X83657Y-60526D01*
X83362Y-60821D01*
X83202Y-61207D01*
X83201Y-61625D01*
X83361Y-62011D01*
X83656Y-62306D01*
X84042Y-62467D01*
X84459Y-62467D01*
X84845Y-62307D01*
X85141Y-62012D01*
X85301Y-61627D01*
X85302Y-61209D01*
X85302Y-62712D01*
X82956Y-62712D01*
X82956Y-58524D01*
X83022Y-58590D01*
X83114Y-58628D01*
X83214Y-58628D01*
X83814Y-58628D01*
X83905Y-58590D01*
X83976Y-58520D01*
X84014Y-58428D01*
X84014Y-58387D01*
X84592Y-58387D01*
X84594Y-58391D01*
X84741Y-58539D01*
X84934Y-58619D01*
X85143Y-58619D01*
X85336Y-58539D01*
X85484Y-58392D01*
X85564Y-58199D01*
X85564Y-57990D01*
X85564Y-54990D01*
X85484Y-54797D01*
X85337Y-54649D01*
X85144Y-54569D01*
X84935Y-54569D01*
X84742Y-54649D01*
X84605Y-54785D01*
X84493Y-54785D01*
X84364Y-54656D01*
X84164Y-54572D01*
X83947Y-54572D01*
X83746Y-54655D01*
X83593Y-54808D01*
X83509Y-55009D01*
X83509Y-55226D01*
X83592Y-55426D01*
X83745Y-55580D01*
X83946Y-55663D01*
X84163Y-55663D01*
X84363Y-55580D01*
X84517Y-55427D01*
X84527Y-55403D01*
X84606Y-55403D01*
X84741Y-55539D01*
X84934Y-55619D01*
X85143Y-55619D01*
X85336Y-55539D01*
X85484Y-55392D01*
X85564Y-55199D01*
X85564Y-54990D01*
X85564Y-57990D01*
X85484Y-57797D01*
X85337Y-57649D01*
X85144Y-57569D01*
X84935Y-57569D01*
X84742Y-57649D01*
X84621Y-57769D01*
X84019Y-57769D01*
X84019Y-57160D01*
X84008Y-56941D01*
X83945Y-56790D01*
X83850Y-56763D01*
X83779Y-56834D01*
X83779Y-56692D01*
X83752Y-56597D01*
X83546Y-56523D01*
X83327Y-56534D01*
X83176Y-56597D01*
X83149Y-56692D01*
X83464Y-57008D01*
X83779Y-56692D01*
X83779Y-56834D01*
X83535Y-57078D01*
X83850Y-57393D01*
X83945Y-57366D01*
X84019Y-57160D01*
X84019Y-57769D01*
X84014Y-57769D01*
X84014Y-57729D01*
X83976Y-57637D01*
X83906Y-57566D01*
X83814Y-57528D01*
X83761Y-57528D01*
X83779Y-57464D01*
X83464Y-57149D01*
X83149Y-57464D01*
X83167Y-57528D01*
X83115Y-57528D01*
X83023Y-57566D01*
X82956Y-57633D01*
X82956Y-57302D01*
X82983Y-57366D01*
X83078Y-57393D01*
X83393Y-57078D01*
X83078Y-56763D01*
X82983Y-56790D01*
X82956Y-56865D01*
X82956Y-50423D01*
X82998Y-50523D01*
X83152Y-50678D01*
X83155Y-50679D01*
X83155Y-52952D01*
X83179Y-53071D01*
X83246Y-53171D01*
X84155Y-54080D01*
X84255Y-54147D01*
X84255Y-54147D01*
X84374Y-54171D01*
X85393Y-54171D01*
X85528Y-54307D01*
X85721Y-54387D01*
X85930Y-54387D01*
X86123Y-54307D01*
X86271Y-54159D01*
X86351Y-53967D01*
X86351Y-53758D01*
X86272Y-53565D01*
X86124Y-53417D01*
X85931Y-53337D01*
X85722Y-53337D01*
X85529Y-53416D01*
X85393Y-53553D01*
X84502Y-53553D01*
X83773Y-52824D01*
X83773Y-52638D01*
X83946Y-52710D01*
X84163Y-52710D01*
X84363Y-52627D01*
X84517Y-52474D01*
X84600Y-52274D01*
X84600Y-52057D01*
X84600Y-52057D01*
X85439Y-51217D01*
X85528Y-51307D01*
X85721Y-51387D01*
X85930Y-51387D01*
X86123Y-51307D01*
X86260Y-51171D01*
X86574Y-51171D01*
X86710Y-51307D01*
X86902Y-51387D01*
X87111Y-51387D01*
X87304Y-51307D01*
X87452Y-51159D01*
X87532Y-50967D01*
X87532Y-50758D01*
X87454Y-50568D01*
X87454Y-50553D01*
X87742Y-50553D01*
X87742Y-53248D01*
X87776Y-53419D01*
X87865Y-53553D01*
X87441Y-53553D01*
X87305Y-53417D01*
X87112Y-53337D01*
X86903Y-53337D01*
X86710Y-53416D01*
X86563Y-53564D01*
X86482Y-53757D01*
X86482Y-53966D01*
X86562Y-54159D01*
X86710Y-54307D01*
X86902Y-54387D01*
X87111Y-54387D01*
X87304Y-54307D01*
X87441Y-54171D01*
X87986Y-54171D01*
X89431Y-55616D01*
X89431Y-56155D01*
X89469Y-56247D01*
X89539Y-56317D01*
X89631Y-56355D01*
X89731Y-56355D01*
X90281Y-56355D01*
X90373Y-56317D01*
X90443Y-56247D01*
X90481Y-56155D01*
X90481Y-56056D01*
X90481Y-56056D01*
X90511Y-56127D01*
X90546Y-56162D01*
X90324Y-56383D01*
X89202Y-56383D01*
X88734Y-55915D01*
X88734Y-55699D01*
X88651Y-55498D01*
X88498Y-55345D01*
X88297Y-55261D01*
X88080Y-55261D01*
X87880Y-55344D01*
X87726Y-55497D01*
X87643Y-55698D01*
X87643Y-55915D01*
X87726Y-56115D01*
X87879Y-56269D01*
X88080Y-56352D01*
X88296Y-56352D01*
X88297Y-56352D01*
X88856Y-56911D01*
X88856Y-56911D01*
X88956Y-56978D01*
X88956Y-56978D01*
X89074Y-57001D01*
X90452Y-57001D01*
X90504Y-56991D01*
X89931Y-57564D01*
X87106Y-57564D01*
X87106Y-57564D01*
X87082Y-57569D01*
X86988Y-57588D01*
X86887Y-57655D01*
X86887Y-57655D01*
X86198Y-58344D01*
X86131Y-58444D01*
X86108Y-58562D01*
X86108Y-61122D01*
X86131Y-61240D01*
X86198Y-61340D01*
X86986Y-62127D01*
X87086Y-62194D01*
X87086Y-62194D01*
X87204Y-62218D01*
X99925Y-62218D01*
X100043Y-62194D01*
X100043Y-62194D01*
X100143Y-62127D01*
X100404Y-61867D01*
X100596Y-61867D01*
X100789Y-61787D01*
X100936Y-61640D01*
X101017Y-61447D01*
X101017Y-61238D01*
X100937Y-61045D01*
X100789Y-60897D01*
X100597Y-60817D01*
X100388Y-60817D01*
X100195Y-60897D01*
X100061Y-61030D01*
X100061Y-60918D01*
X100050Y-60709D01*
X99992Y-60569D01*
X99899Y-60545D01*
X99828Y-60616D01*
X99828Y-60474D01*
X99804Y-60381D01*
X99607Y-60312D01*
X99398Y-60323D01*
X99258Y-60381D01*
X99234Y-60474D01*
X99531Y-60771D01*
X99828Y-60474D01*
X99828Y-60616D01*
X99602Y-60842D01*
X99899Y-61139D01*
X99992Y-61115D01*
X100061Y-60918D01*
X100061Y-61030D01*
X100047Y-61044D01*
X99967Y-61237D01*
X99967Y-61430D01*
X99828Y-61569D01*
X99828Y-61210D01*
X99531Y-60913D01*
X99460Y-60983D01*
X99460Y-60842D01*
X99163Y-60545D01*
X99070Y-60569D01*
X99001Y-60766D01*
X99012Y-60975D01*
X99070Y-61115D01*
X99163Y-61139D01*
X99460Y-60842D01*
X99460Y-60983D01*
X99234Y-61210D01*
X99258Y-61303D01*
X99455Y-61372D01*
X99664Y-61361D01*
X99804Y-61303D01*
X99828Y-61210D01*
X99828Y-61569D01*
X99797Y-61600D01*
X97061Y-61600D01*
X97061Y-60918D01*
X97050Y-60709D01*
X96992Y-60569D01*
X96899Y-60545D01*
X96828Y-60616D01*
X96828Y-60474D01*
X96804Y-60381D01*
X96607Y-60312D01*
X96398Y-60323D01*
X96258Y-60381D01*
X96234Y-60474D01*
X96531Y-60771D01*
X96828Y-60474D01*
X96828Y-60616D01*
X96602Y-60842D01*
X96899Y-61139D01*
X96992Y-61115D01*
X97061Y-60918D01*
X97061Y-61600D01*
X96828Y-61600D01*
X96828Y-61210D01*
X96531Y-60913D01*
X96460Y-60983D01*
X96460Y-60842D01*
X96163Y-60545D01*
X96070Y-60569D01*
X96001Y-60766D01*
X96012Y-60975D01*
X96070Y-61115D01*
X96163Y-61139D01*
X96460Y-60842D01*
X96460Y-60983D01*
X96234Y-61210D01*
X96258Y-61303D01*
X96455Y-61372D01*
X96664Y-61361D01*
X96804Y-61303D01*
X96828Y-61210D01*
X96828Y-61600D01*
X95336Y-61600D01*
X95336Y-60918D01*
X95325Y-60709D01*
X95267Y-60569D01*
X95174Y-60545D01*
X95104Y-60616D01*
X95104Y-60474D01*
X95079Y-60381D01*
X94882Y-60312D01*
X94674Y-60323D01*
X94534Y-60381D01*
X94510Y-60474D01*
X94807Y-60771D01*
X95104Y-60474D01*
X95104Y-60616D01*
X94877Y-60842D01*
X95174Y-61139D01*
X95267Y-61115D01*
X95336Y-60918D01*
X95336Y-61600D01*
X95104Y-61600D01*
X95104Y-61210D01*
X94807Y-60913D01*
X94736Y-60983D01*
X94736Y-60842D01*
X94439Y-60545D01*
X94346Y-60569D01*
X94277Y-60766D01*
X94288Y-60975D01*
X94346Y-61115D01*
X94439Y-61139D01*
X94736Y-60842D01*
X94736Y-60983D01*
X94510Y-61210D01*
X94534Y-61303D01*
X94731Y-61372D01*
X94939Y-61361D01*
X95079Y-61303D01*
X95104Y-61210D01*
X95104Y-61600D01*
X92336Y-61600D01*
X92336Y-60918D01*
X92325Y-60709D01*
X92267Y-60569D01*
X92174Y-60545D01*
X92104Y-60616D01*
X92104Y-60474D01*
X92079Y-60381D01*
X91882Y-60312D01*
X91674Y-60323D01*
X91534Y-60381D01*
X91510Y-60474D01*
X91807Y-60771D01*
X92104Y-60474D01*
X92104Y-60616D01*
X91877Y-60842D01*
X92174Y-61139D01*
X92267Y-61115D01*
X92336Y-60918D01*
X92336Y-61600D01*
X92104Y-61600D01*
X92104Y-61210D01*
X91807Y-60913D01*
X91736Y-60983D01*
X91736Y-60842D01*
X91439Y-60545D01*
X91346Y-60569D01*
X91277Y-60766D01*
X91288Y-60975D01*
X91346Y-61115D01*
X91439Y-61139D01*
X91736Y-60842D01*
X91736Y-60983D01*
X91510Y-61210D01*
X91534Y-61303D01*
X91731Y-61372D01*
X91939Y-61361D01*
X92079Y-61303D01*
X92104Y-61210D01*
X92104Y-61600D01*
X90612Y-61600D01*
X90612Y-60918D01*
X90601Y-60709D01*
X90543Y-60569D01*
X90450Y-60545D01*
X90379Y-60616D01*
X90379Y-60474D01*
X90355Y-60381D01*
X90158Y-60312D01*
X89949Y-60323D01*
X89809Y-60381D01*
X89785Y-60474D01*
X90082Y-60771D01*
X90379Y-60474D01*
X90379Y-60616D01*
X90153Y-60842D01*
X90450Y-61139D01*
X90543Y-61115D01*
X90612Y-60918D01*
X90612Y-61600D01*
X90379Y-61600D01*
X90379Y-61210D01*
X90082Y-60913D01*
X90011Y-60983D01*
X90011Y-60842D01*
X89714Y-60545D01*
X89622Y-60569D01*
X89552Y-60766D01*
X89564Y-60975D01*
X89622Y-61115D01*
X89714Y-61139D01*
X90011Y-60842D01*
X90011Y-60983D01*
X89785Y-61210D01*
X89809Y-61303D01*
X90006Y-61372D01*
X90215Y-61361D01*
X90355Y-61303D01*
X90379Y-61210D01*
X90379Y-61600D01*
X87612Y-61600D01*
X87612Y-60918D01*
X87601Y-60709D01*
X87543Y-60569D01*
X87450Y-60545D01*
X87379Y-60616D01*
X87153Y-60842D01*
X87450Y-61139D01*
X87543Y-61115D01*
X87612Y-60918D01*
X87612Y-61600D01*
X87332Y-61600D01*
X87099Y-61367D01*
X87215Y-61361D01*
X87355Y-61303D01*
X87379Y-61210D01*
X87082Y-60913D01*
X87077Y-60918D01*
X87006Y-60848D01*
X87011Y-60842D01*
X87006Y-60836D01*
X87077Y-60766D01*
X87082Y-60771D01*
X87379Y-60474D01*
X87355Y-60381D01*
X87158Y-60312D01*
X86949Y-60323D01*
X86809Y-60381D01*
X86785Y-60474D01*
X86740Y-60429D01*
X86726Y-60443D01*
X86726Y-59228D01*
X86784Y-59287D01*
X86977Y-59367D01*
X87186Y-59367D01*
X87379Y-59287D01*
X87516Y-59151D01*
X89649Y-59151D01*
X89784Y-59287D01*
X89977Y-59367D01*
X90186Y-59367D01*
X90379Y-59287D01*
X90516Y-59151D01*
X90665Y-59151D01*
X90783Y-59128D01*
X90783Y-59128D01*
X90883Y-59061D01*
X91335Y-58609D01*
X91282Y-58737D01*
X91281Y-58946D01*
X91361Y-59139D01*
X91509Y-59287D01*
X91702Y-59367D01*
X91911Y-59367D01*
X92104Y-59287D01*
X92240Y-59151D01*
X94291Y-59151D01*
X94373Y-59151D01*
X94509Y-59287D01*
X94702Y-59367D01*
X94911Y-59367D01*
X95104Y-59287D01*
X95251Y-59140D01*
X95331Y-58947D01*
X95332Y-58738D01*
X95252Y-58545D01*
X95104Y-58397D01*
X94911Y-58317D01*
X94703Y-58317D01*
X94600Y-58359D01*
X94600Y-56216D01*
X94647Y-56264D01*
X94647Y-57653D01*
X94671Y-57771D01*
X94738Y-57872D01*
X95927Y-59061D01*
X95927Y-59061D01*
X96027Y-59128D01*
X96027Y-59128D01*
X96086Y-59139D01*
X96233Y-59287D01*
X96426Y-59367D01*
X96635Y-59367D01*
X96828Y-59287D01*
X96965Y-59151D01*
X99098Y-59151D01*
X99233Y-59287D01*
X99426Y-59367D01*
X99635Y-59367D01*
X99828Y-59287D01*
X99976Y-59140D01*
X100056Y-58947D01*
X100056Y-58738D01*
X99976Y-58545D01*
X99829Y-58397D01*
X99636Y-58317D01*
X99427Y-58317D01*
X99234Y-58397D01*
X99097Y-58533D01*
X97486Y-58533D01*
X97486Y-57162D01*
X97475Y-56953D01*
X97417Y-56813D01*
X97324Y-56789D01*
X97253Y-56860D01*
X97253Y-56718D01*
X97253Y-56198D01*
X96956Y-55901D01*
X96659Y-56198D01*
X96683Y-56291D01*
X96880Y-56360D01*
X97089Y-56349D01*
X97229Y-56291D01*
X97253Y-56198D01*
X97253Y-56718D01*
X97229Y-56626D01*
X97032Y-56556D01*
X96823Y-56568D01*
X96683Y-56626D01*
X96659Y-56718D01*
X96956Y-57015D01*
X97253Y-56718D01*
X97253Y-56860D01*
X97027Y-57086D01*
X97324Y-57383D01*
X97417Y-57359D01*
X97486Y-57162D01*
X97486Y-58533D01*
X97253Y-58533D01*
X97253Y-57454D01*
X96956Y-57157D01*
X96659Y-57454D01*
X96683Y-57547D01*
X96880Y-57616D01*
X97089Y-57605D01*
X97229Y-57547D01*
X97253Y-57454D01*
X97253Y-58533D01*
X96964Y-58533D01*
X96829Y-58397D01*
X96636Y-58317D01*
X96427Y-58317D01*
X96234Y-58397D01*
X96185Y-58445D01*
X95265Y-57525D01*
X95265Y-56264D01*
X95401Y-56128D01*
X95456Y-55995D01*
X95509Y-56124D01*
X95509Y-56793D01*
X95431Y-56981D01*
X95431Y-57190D01*
X95511Y-57383D01*
X95658Y-57531D01*
X95851Y-57611D01*
X96060Y-57611D01*
X96253Y-57531D01*
X96401Y-57384D01*
X96454Y-57257D01*
X96496Y-57359D01*
X96588Y-57383D01*
X96885Y-57086D01*
X96588Y-56789D01*
X96496Y-56813D01*
X96457Y-56923D01*
X96403Y-56793D01*
X96403Y-56123D01*
X96454Y-56001D01*
X96496Y-56103D01*
X96588Y-56127D01*
X96885Y-55830D01*
X96588Y-55533D01*
X96496Y-55557D01*
X96457Y-55667D01*
X96402Y-55533D01*
X96311Y-55443D01*
X96311Y-55443D01*
X96272Y-55384D01*
X96253Y-55365D01*
X96253Y-53198D01*
X95956Y-52901D01*
X95659Y-53198D01*
X95683Y-53291D01*
X95880Y-53360D01*
X96089Y-53349D01*
X96229Y-53291D01*
X96253Y-53198D01*
X96253Y-55365D01*
X95394Y-54506D01*
X95249Y-54409D01*
X95078Y-54375D01*
X89948Y-54375D01*
X88635Y-53062D01*
X88635Y-50553D01*
X89854Y-50553D01*
X90025Y-50519D01*
X90025Y-50519D01*
X90170Y-50422D01*
X90940Y-49651D01*
X92726Y-49651D01*
X92854Y-49704D01*
X92722Y-49759D01*
X92574Y-49906D01*
X92544Y-49979D01*
X92544Y-49979D01*
X92544Y-49879D01*
X92506Y-49787D01*
X92436Y-49717D01*
X92344Y-49679D01*
X92132Y-49679D01*
X92069Y-49742D01*
X92069Y-50154D01*
X92077Y-50154D01*
X92077Y-50254D01*
X92069Y-50254D01*
X92069Y-50667D01*
X92132Y-50729D01*
X92344Y-50729D01*
X92436Y-50691D01*
X92506Y-50621D01*
X92544Y-50529D01*
X92544Y-50430D01*
X92544Y-50430D01*
X92574Y-50501D01*
X92710Y-50638D01*
X92710Y-50893D01*
X92734Y-51011D01*
X92801Y-51112D01*
X93994Y-52305D01*
X93852Y-52305D01*
X93659Y-52385D01*
X93511Y-52532D01*
X93456Y-52665D01*
X93402Y-52533D01*
X93254Y-52385D01*
X93061Y-52305D01*
X92852Y-52305D01*
X92659Y-52385D01*
X92511Y-52532D01*
X92456Y-52665D01*
X92402Y-52533D01*
X92254Y-52385D01*
X92061Y-52305D01*
X91969Y-52305D01*
X91969Y-50667D01*
X91969Y-50254D01*
X91969Y-50154D01*
X91969Y-49742D01*
X91907Y-49679D01*
X91695Y-49679D01*
X91603Y-49717D01*
X91532Y-49787D01*
X91494Y-49879D01*
X91494Y-49979D01*
X91494Y-50092D01*
X91557Y-50154D01*
X91969Y-50154D01*
X91969Y-50254D01*
X91557Y-50254D01*
X91494Y-50317D01*
X91494Y-50430D01*
X91494Y-50529D01*
X91532Y-50621D01*
X91603Y-50691D01*
X91695Y-50729D01*
X91907Y-50729D01*
X91969Y-50667D01*
X91969Y-52305D01*
X91852Y-52305D01*
X91659Y-52385D01*
X91511Y-52532D01*
X91456Y-52665D01*
X91402Y-52533D01*
X91254Y-52385D01*
X91061Y-52305D01*
X90852Y-52305D01*
X90659Y-52385D01*
X90511Y-52532D01*
X90456Y-52665D01*
X90402Y-52533D01*
X90254Y-52385D01*
X90061Y-52305D01*
X89852Y-52305D01*
X89659Y-52385D01*
X89511Y-52532D01*
X89431Y-52725D01*
X89431Y-52934D01*
X89511Y-53127D01*
X89658Y-53275D01*
X89851Y-53355D01*
X90060Y-53355D01*
X90253Y-53276D01*
X90401Y-53128D01*
X90456Y-52995D01*
X90511Y-53127D01*
X90658Y-53275D01*
X90851Y-53355D01*
X91060Y-53355D01*
X91253Y-53276D01*
X91401Y-53128D01*
X91456Y-52995D01*
X91511Y-53127D01*
X91658Y-53275D01*
X91851Y-53355D01*
X92060Y-53355D01*
X92253Y-53276D01*
X92401Y-53128D01*
X92456Y-52995D01*
X92511Y-53127D01*
X92658Y-53275D01*
X92851Y-53355D01*
X93060Y-53355D01*
X93253Y-53276D01*
X93401Y-53128D01*
X93456Y-52995D01*
X93511Y-53127D01*
X93658Y-53275D01*
X93851Y-53355D01*
X94060Y-53355D01*
X94253Y-53276D01*
X94401Y-53128D01*
X94456Y-52995D01*
X94511Y-53127D01*
X94658Y-53275D01*
X94851Y-53355D01*
X95060Y-53355D01*
X95253Y-53276D01*
X95401Y-53128D01*
X95454Y-53001D01*
X95496Y-53103D01*
X95588Y-53127D01*
X95885Y-52830D01*
X95588Y-52533D01*
X95496Y-52557D01*
X95457Y-52667D01*
X95402Y-52533D01*
X95254Y-52385D01*
X95061Y-52305D01*
X94868Y-52305D01*
X93328Y-50765D01*
X93328Y-50638D01*
X93464Y-50502D01*
X93544Y-50309D01*
X93544Y-50100D01*
X93465Y-49907D01*
X93317Y-49759D01*
X93184Y-49704D01*
X93313Y-49651D01*
X94554Y-49651D01*
X94560Y-49657D01*
X94753Y-49737D01*
X94962Y-49737D01*
X95155Y-49657D01*
X95303Y-49510D01*
X95383Y-49317D01*
X95383Y-49108D01*
X95303Y-48915D01*
X95156Y-48767D01*
X94963Y-48687D01*
X94754Y-48687D01*
X94583Y-48757D01*
X93312Y-48757D01*
X93124Y-48679D01*
X92915Y-48679D01*
X92726Y-48757D01*
X91091Y-48757D01*
X91253Y-48690D01*
X91406Y-48537D01*
X91490Y-48337D01*
X91490Y-48120D01*
X91490Y-48120D01*
X92714Y-46895D01*
X92781Y-46795D01*
X92781Y-46795D01*
X92805Y-46677D01*
X92805Y-46004D01*
X92940Y-45868D01*
X93020Y-45675D01*
X93021Y-45466D01*
X92941Y-45273D01*
X92793Y-45126D01*
X92600Y-45045D01*
X92392Y-45045D01*
X92199Y-45125D01*
X92051Y-45273D01*
X91971Y-45465D01*
X91970Y-45674D01*
X92050Y-45867D01*
X92187Y-46004D01*
X92187Y-46549D01*
X91052Y-47683D01*
X90836Y-47682D01*
X90636Y-47765D01*
X90482Y-47919D01*
X90399Y-48119D01*
X90399Y-48336D01*
X90482Y-48536D01*
X90635Y-48690D01*
X90798Y-48757D01*
X90755Y-48757D01*
X90584Y-48791D01*
X90439Y-48888D01*
X89669Y-49659D01*
X88718Y-49659D01*
X88718Y-49182D01*
X88707Y-48973D01*
X88649Y-48833D01*
X88556Y-48809D01*
X88259Y-49106D01*
X88556Y-49403D01*
X88649Y-49379D01*
X88718Y-49182D01*
X88718Y-49659D01*
X88481Y-49659D01*
X88360Y-49608D01*
X88461Y-49566D01*
X88486Y-49474D01*
X88188Y-49177D01*
X88118Y-49247D01*
X87891Y-49474D01*
X87916Y-49566D01*
X88026Y-49605D01*
X87895Y-49659D01*
X87423Y-49659D01*
X87420Y-49647D01*
X87420Y-49647D01*
X87323Y-49502D01*
X87030Y-49210D01*
X86953Y-49021D01*
X86805Y-48874D01*
X86733Y-48843D01*
X86832Y-48843D01*
X86924Y-48805D01*
X86994Y-48735D01*
X87032Y-48643D01*
X87032Y-48544D01*
X87032Y-48544D01*
X87062Y-48615D01*
X87210Y-48763D01*
X87402Y-48843D01*
X87611Y-48843D01*
X87784Y-48772D01*
X87821Y-48809D01*
X87728Y-48833D01*
X87659Y-49030D01*
X87670Y-49239D01*
X87728Y-49379D01*
X87821Y-49403D01*
X88118Y-49106D01*
X88112Y-49100D01*
X88183Y-49030D01*
X88188Y-49035D01*
X88486Y-48738D01*
X88461Y-48645D01*
X88264Y-48576D01*
X88056Y-48587D01*
X87928Y-48640D01*
X87952Y-48616D01*
X88032Y-48423D01*
X88032Y-48214D01*
X87954Y-48025D01*
X87954Y-46456D01*
X87920Y-46285D01*
X87823Y-46140D01*
X87823Y-46140D01*
X87637Y-45954D01*
X87561Y-45769D01*
X87561Y-44994D01*
X87620Y-44935D01*
X105468Y-44935D01*
X105487Y-44954D01*
X105689Y-45038D01*
X105908Y-45038D01*
X106110Y-44954D01*
X106249Y-44816D01*
X106249Y-44837D01*
X106287Y-44929D01*
X106297Y-44940D01*
X106121Y-45116D01*
X98824Y-45116D01*
X98636Y-45038D01*
X98427Y-45037D01*
X98234Y-45117D01*
X98086Y-45265D01*
X98006Y-45458D01*
X98006Y-45600D01*
X97757Y-45352D01*
X97657Y-45285D01*
X97539Y-45261D01*
X95929Y-45261D01*
X95793Y-45126D01*
X95600Y-45045D01*
X95392Y-45045D01*
X95199Y-45125D01*
X95051Y-45273D01*
X94971Y-45465D01*
X94970Y-45674D01*
X95050Y-45867D01*
X95198Y-46015D01*
X95391Y-46095D01*
X95600Y-46095D01*
X95793Y-46016D01*
X95929Y-45879D01*
X97411Y-45879D01*
X97606Y-46075D01*
X97581Y-46100D01*
X97581Y-46512D01*
X97589Y-46512D01*
X97589Y-46612D01*
X97581Y-46612D01*
X97581Y-47025D01*
X97643Y-47087D01*
X97856Y-47088D01*
X97947Y-47050D01*
X98018Y-46979D01*
X98056Y-46887D01*
X98056Y-46788D01*
X98056Y-46788D01*
X98086Y-46859D01*
X98233Y-47007D01*
X98426Y-47087D01*
X98635Y-47088D01*
X98828Y-47008D01*
X98976Y-46860D01*
X99056Y-46667D01*
X99056Y-46459D01*
X98976Y-46265D01*
X98829Y-46118D01*
X98696Y-46062D01*
X98824Y-46009D01*
X106307Y-46009D01*
X106478Y-45975D01*
X106478Y-45975D01*
X106623Y-45878D01*
X107115Y-45386D01*
X107115Y-45386D01*
X107212Y-45241D01*
X107246Y-45070D01*
X107246Y-45070D01*
X107246Y-44994D01*
X107311Y-44929D01*
X107349Y-44838D01*
X107349Y-44738D01*
X107349Y-44138D01*
X107311Y-44046D01*
X107241Y-43976D01*
X107149Y-43938D01*
X107049Y-43938D01*
X106449Y-43938D01*
X106357Y-43976D01*
X106287Y-44046D01*
X106249Y-44138D01*
X106249Y-44160D01*
X106111Y-44022D01*
X105909Y-43938D01*
X105690Y-43938D01*
X105488Y-44021D01*
X105468Y-44041D01*
X87620Y-44041D01*
X87555Y-43976D01*
X87464Y-43938D01*
X87364Y-43938D01*
X86764Y-43938D01*
X86672Y-43976D01*
X86602Y-44046D01*
X86564Y-44138D01*
X86564Y-44191D01*
X86500Y-44172D01*
X86429Y-44243D01*
X86429Y-44102D01*
X86402Y-44006D01*
X86195Y-43933D01*
X85977Y-43944D01*
X85826Y-44006D01*
X85798Y-44102D01*
X86114Y-44417D01*
X86429Y-44102D01*
X86429Y-44243D01*
X86184Y-44488D01*
X86500Y-44803D01*
X86564Y-44785D01*
X86564Y-44837D01*
X86602Y-44929D01*
X86667Y-44994D01*
X86667Y-45770D01*
X86616Y-45891D01*
X86574Y-45790D01*
X86481Y-45765D01*
X86429Y-45818D01*
X86429Y-44874D01*
X86114Y-44558D01*
X86043Y-44629D01*
X86043Y-44488D01*
X85728Y-44172D01*
X85632Y-44200D01*
X85559Y-44406D01*
X85570Y-44624D01*
X85632Y-44776D01*
X85728Y-44803D01*
X86043Y-44488D01*
X86043Y-44629D01*
X85798Y-44874D01*
X85826Y-44969D01*
X86032Y-45042D01*
X86250Y-45032D01*
X86402Y-44969D01*
X86429Y-44874D01*
X86429Y-45818D01*
X86411Y-45836D01*
X86411Y-45695D01*
X86386Y-45602D01*
X86189Y-45533D01*
X85981Y-45544D01*
X85841Y-45602D01*
X85817Y-45695D01*
X86114Y-45992D01*
X86411Y-45695D01*
X86411Y-45836D01*
X86184Y-46062D01*
X86481Y-46360D01*
X86574Y-46335D01*
X86613Y-46225D01*
X86668Y-46359D01*
X86816Y-46507D01*
X87005Y-46586D01*
X87061Y-46641D01*
X87061Y-48026D01*
X87032Y-48093D01*
X87032Y-48093D01*
X87032Y-47993D01*
X86994Y-47902D01*
X86924Y-47831D01*
X86832Y-47793D01*
X86620Y-47793D01*
X86557Y-47856D01*
X86557Y-48268D01*
X86565Y-48268D01*
X86565Y-48368D01*
X86557Y-48368D01*
X86557Y-48376D01*
X86457Y-48376D01*
X86457Y-48368D01*
X86457Y-48268D01*
X86457Y-47856D01*
X86411Y-47809D01*
X86411Y-46430D01*
X86114Y-46133D01*
X86043Y-46204D01*
X86043Y-46062D01*
X85746Y-45765D01*
X85653Y-45790D01*
X85584Y-45987D01*
X85595Y-46195D01*
X85653Y-46335D01*
X85746Y-46360D01*
X86043Y-46062D01*
X86043Y-46204D01*
X85817Y-46430D01*
X85841Y-46523D01*
X86038Y-46592D01*
X86246Y-46581D01*
X86386Y-46523D01*
X86411Y-46430D01*
X86411Y-47809D01*
X86395Y-47793D01*
X86183Y-47793D01*
X86091Y-47831D01*
X86021Y-47902D01*
X85982Y-47993D01*
X85982Y-48093D01*
X85982Y-48206D01*
X86045Y-48268D01*
X86457Y-48268D01*
X86457Y-48368D01*
X86045Y-48368D01*
X85982Y-48431D01*
X85982Y-48544D01*
X85982Y-48643D01*
X86021Y-48735D01*
X86091Y-48805D01*
X86183Y-48843D01*
X86282Y-48843D01*
X86210Y-48873D01*
X86074Y-49009D01*
X85302Y-49009D01*
X85302Y-44673D01*
X85142Y-44287D01*
X84847Y-43992D01*
X84461Y-43832D01*
X84044Y-43831D01*
X83657Y-43991D01*
X83362Y-44286D01*
X83202Y-44672D01*
X83201Y-45089D01*
X83361Y-45475D01*
X83656Y-45771D01*
X84042Y-45931D01*
X84459Y-45932D01*
X84845Y-45772D01*
X85141Y-45477D01*
X85301Y-45091D01*
X85302Y-44673D01*
X85302Y-49009D01*
X83975Y-49009D01*
X83931Y-48901D01*
X83792Y-48762D01*
X83814Y-48762D01*
X83906Y-48724D01*
X83976Y-48654D01*
X84014Y-48562D01*
X84014Y-47863D01*
X83976Y-47771D01*
X83906Y-47700D01*
X83814Y-47662D01*
X83715Y-47662D01*
X83577Y-47662D01*
X83514Y-47725D01*
X83514Y-48162D01*
X83952Y-48162D01*
X84014Y-48100D01*
X84014Y-47863D01*
X84014Y-48562D01*
X84014Y-48325D01*
X83952Y-48262D01*
X83514Y-48262D01*
X83514Y-48270D01*
X83414Y-48270D01*
X83414Y-48262D01*
X83406Y-48262D01*
X83406Y-48162D01*
X83414Y-48162D01*
X83414Y-47725D01*
X83352Y-47662D01*
X83214Y-47662D01*
X83114Y-47662D01*
X83022Y-47700D01*
X82956Y-47766D01*
X82956Y-43586D01*
X109956Y-43586D01*
X109956Y-51938D01*
X109915Y-51838D01*
X109760Y-51683D01*
X109711Y-51663D01*
X109711Y-44673D01*
X109552Y-44287D01*
X109256Y-43992D01*
X108871Y-43832D01*
X108453Y-43831D01*
X108067Y-43991D01*
X107771Y-44286D01*
X107611Y-44672D01*
X107611Y-45089D01*
X107770Y-45475D01*
X108065Y-45771D01*
X108451Y-45931D01*
X108869Y-45932D01*
X109255Y-45772D01*
X109551Y-45477D01*
X109711Y-45091D01*
X109711Y-44673D01*
X109711Y-51663D01*
X109558Y-51599D01*
X109339Y-51599D01*
X109137Y-51683D01*
X108982Y-51837D01*
X108981Y-51840D01*
X107001Y-51840D01*
X107001Y-51214D01*
X107001Y-49651D01*
X103627Y-49651D01*
X103627Y-51214D01*
X107001Y-51214D01*
X107001Y-51840D01*
X102279Y-51840D01*
X102161Y-51864D01*
X102060Y-51931D01*
X101738Y-52253D01*
X101671Y-52354D01*
X101665Y-52383D01*
X101659Y-52385D01*
X101511Y-52532D01*
X101456Y-52665D01*
X101402Y-52533D01*
X101254Y-52385D01*
X101061Y-52305D01*
X100852Y-52305D01*
X100659Y-52385D01*
X100511Y-52532D01*
X100456Y-52665D01*
X100402Y-52533D01*
X100254Y-52385D01*
X100061Y-52305D01*
X99852Y-52305D01*
X99750Y-52347D01*
X99750Y-51355D01*
X99739Y-51146D01*
X99681Y-51006D01*
X99588Y-50982D01*
X99517Y-51053D01*
X99517Y-50911D01*
X99493Y-50818D01*
X99296Y-50749D01*
X99087Y-50760D01*
X98947Y-50818D01*
X98923Y-50911D01*
X99220Y-51208D01*
X99517Y-50911D01*
X99517Y-51053D01*
X99291Y-51279D01*
X99588Y-51576D01*
X99681Y-51552D01*
X99750Y-51355D01*
X99750Y-52347D01*
X99659Y-52385D01*
X99517Y-52527D01*
X99517Y-51647D01*
X99220Y-51350D01*
X98923Y-51647D01*
X98947Y-51740D01*
X99144Y-51809D01*
X99353Y-51798D01*
X99493Y-51740D01*
X99517Y-51647D01*
X99517Y-52527D01*
X99511Y-52532D01*
X99456Y-52665D01*
X99402Y-52533D01*
X99254Y-52385D01*
X99061Y-52305D01*
X98852Y-52305D01*
X98659Y-52385D01*
X98511Y-52532D01*
X98456Y-52665D01*
X98403Y-52537D01*
X98403Y-51771D01*
X98517Y-51724D01*
X98665Y-51577D01*
X98717Y-51450D01*
X98759Y-51552D01*
X98852Y-51576D01*
X99149Y-51279D01*
X98852Y-50982D01*
X98759Y-51006D01*
X98721Y-51116D01*
X98665Y-50982D01*
X98518Y-50834D01*
X98329Y-50756D01*
X98305Y-50732D01*
X98305Y-49505D01*
X98383Y-49317D01*
X98383Y-49108D01*
X98303Y-48915D01*
X98156Y-48767D01*
X97963Y-48687D01*
X97754Y-48687D01*
X97561Y-48767D01*
X97481Y-48846D01*
X97481Y-47025D01*
X97481Y-46612D01*
X97481Y-46512D01*
X97481Y-46100D01*
X97418Y-46037D01*
X97206Y-46037D01*
X97115Y-46075D01*
X97044Y-46146D01*
X97006Y-46238D01*
X97006Y-46337D01*
X97006Y-46450D01*
X97068Y-46512D01*
X97481Y-46512D01*
X97481Y-46612D01*
X97068Y-46612D01*
X97006Y-46675D01*
X97006Y-46788D01*
X97006Y-46887D01*
X97044Y-46979D01*
X97115Y-47050D01*
X97206Y-47088D01*
X97418Y-47087D01*
X97481Y-47025D01*
X97481Y-48846D01*
X97413Y-48914D01*
X97333Y-49107D01*
X97333Y-49316D01*
X97411Y-49505D01*
X97411Y-50917D01*
X97445Y-51088D01*
X97542Y-51233D01*
X97598Y-51289D01*
X97543Y-51372D01*
X97509Y-51543D01*
X97509Y-52537D01*
X97456Y-52665D01*
X97402Y-52533D01*
X97254Y-52385D01*
X97061Y-52305D01*
X96872Y-52305D01*
X96872Y-51712D01*
X97007Y-51577D01*
X97087Y-51384D01*
X97088Y-51175D01*
X97008Y-50982D01*
X96860Y-50834D01*
X96667Y-50754D01*
X96459Y-50754D01*
X96265Y-50834D01*
X96118Y-50981D01*
X96065Y-51108D01*
X96023Y-51006D01*
X95930Y-50982D01*
X95860Y-51053D01*
X95860Y-50911D01*
X95835Y-50818D01*
X95638Y-50749D01*
X95430Y-50760D01*
X95290Y-50818D01*
X95265Y-50911D01*
X95562Y-51208D01*
X95860Y-50911D01*
X95860Y-51053D01*
X95633Y-51279D01*
X95930Y-51576D01*
X96023Y-51552D01*
X96062Y-51442D01*
X96117Y-51576D01*
X96253Y-51713D01*
X96253Y-52437D01*
X96258Y-52458D01*
X96253Y-52462D01*
X96229Y-52370D01*
X96032Y-52300D01*
X95860Y-52310D01*
X95860Y-51647D01*
X95562Y-51350D01*
X95492Y-51420D01*
X95492Y-51279D01*
X95195Y-50982D01*
X95102Y-51006D01*
X95033Y-51203D01*
X95044Y-51412D01*
X95102Y-51552D01*
X95195Y-51576D01*
X95492Y-51279D01*
X95492Y-51420D01*
X95265Y-51647D01*
X95290Y-51740D01*
X95487Y-51809D01*
X95695Y-51798D01*
X95835Y-51740D01*
X95860Y-51647D01*
X95860Y-52310D01*
X95823Y-52312D01*
X95683Y-52370D01*
X95659Y-52462D01*
X95956Y-52759D01*
X95962Y-52754D01*
X96032Y-52825D01*
X96027Y-52830D01*
X96324Y-53127D01*
X96417Y-53103D01*
X96455Y-52993D01*
X96511Y-53127D01*
X96658Y-53275D01*
X96851Y-53355D01*
X97060Y-53355D01*
X97253Y-53276D01*
X97401Y-53128D01*
X97456Y-52995D01*
X97511Y-53127D01*
X97658Y-53275D01*
X97851Y-53355D01*
X98060Y-53355D01*
X98253Y-53276D01*
X98401Y-53128D01*
X98456Y-52995D01*
X98511Y-53127D01*
X98658Y-53275D01*
X98851Y-53355D01*
X99060Y-53355D01*
X99253Y-53276D01*
X99401Y-53128D01*
X99456Y-52995D01*
X99511Y-53127D01*
X99658Y-53275D01*
X99851Y-53355D01*
X100060Y-53355D01*
X100253Y-53276D01*
X100401Y-53128D01*
X100456Y-52995D01*
X100511Y-53127D01*
X100658Y-53275D01*
X100851Y-53355D01*
X101060Y-53355D01*
X101253Y-53276D01*
X101401Y-53128D01*
X101456Y-52995D01*
X101511Y-53127D01*
X101658Y-53275D01*
X101851Y-53355D01*
X102060Y-53355D01*
X102253Y-53276D01*
X102401Y-53128D01*
X102456Y-52995D01*
X102511Y-53127D01*
X102658Y-53275D01*
X102851Y-53355D01*
X103017Y-53355D01*
X103029Y-53368D01*
X103129Y-53435D01*
X103129Y-53435D01*
X103248Y-53458D01*
X108981Y-53458D01*
X108982Y-53460D01*
X109120Y-53599D01*
X109099Y-53599D01*
X109007Y-53637D01*
X108937Y-53707D01*
X108898Y-53799D01*
X108898Y-53840D01*
X106775Y-53840D01*
X106775Y-53840D01*
X106752Y-53845D01*
X106657Y-53864D01*
X106557Y-53931D01*
X106557Y-53931D01*
X104966Y-55521D01*
X103389Y-55521D01*
X103254Y-55385D01*
X103061Y-55305D01*
X102852Y-55305D01*
X102659Y-55385D01*
X102511Y-55532D01*
X102456Y-55665D01*
X102402Y-55533D01*
X102254Y-55385D01*
X102061Y-55305D01*
X101852Y-55305D01*
X101659Y-55385D01*
X101511Y-55532D01*
X101456Y-55665D01*
X101402Y-55533D01*
X101254Y-55385D01*
X101061Y-55305D01*
X100852Y-55305D01*
X100659Y-55385D01*
X100511Y-55532D01*
X100456Y-55665D01*
X100402Y-55533D01*
X100254Y-55385D01*
X100061Y-55305D01*
X99852Y-55305D01*
X99659Y-55385D01*
X99511Y-55532D01*
X99456Y-55665D01*
X99402Y-55533D01*
X99254Y-55385D01*
X99061Y-55305D01*
X98852Y-55305D01*
X98659Y-55385D01*
X98511Y-55532D01*
X98456Y-55665D01*
X98402Y-55533D01*
X98254Y-55385D01*
X98061Y-55305D01*
X97852Y-55305D01*
X97659Y-55385D01*
X97511Y-55532D01*
X97459Y-55659D01*
X97417Y-55557D01*
X97324Y-55533D01*
X97253Y-55604D01*
X97253Y-55462D01*
X97229Y-55370D01*
X97032Y-55300D01*
X96823Y-55312D01*
X96683Y-55370D01*
X96659Y-55462D01*
X96956Y-55759D01*
X97253Y-55462D01*
X97253Y-55604D01*
X97027Y-55830D01*
X97324Y-56127D01*
X97417Y-56103D01*
X97455Y-55993D01*
X97511Y-56127D01*
X97658Y-56275D01*
X97851Y-56355D01*
X98060Y-56355D01*
X98253Y-56276D01*
X98401Y-56128D01*
X98456Y-55995D01*
X98511Y-56127D01*
X98658Y-56275D01*
X98851Y-56355D01*
X99044Y-56355D01*
X100506Y-57817D01*
X100388Y-57817D01*
X100195Y-57897D01*
X100047Y-58044D01*
X99967Y-58237D01*
X99967Y-58446D01*
X100046Y-58639D01*
X100194Y-58787D01*
X100387Y-58867D01*
X100596Y-58867D01*
X100789Y-58787D01*
X100925Y-58651D01*
X101234Y-58651D01*
X101888Y-59306D01*
X101880Y-59325D01*
X101880Y-59555D01*
X101968Y-59769D01*
X102131Y-59932D01*
X102152Y-59941D01*
X102123Y-60033D01*
X102460Y-60370D01*
X102797Y-60033D01*
X102768Y-59941D01*
X102788Y-59932D01*
X102952Y-59769D01*
X103040Y-59556D01*
X103040Y-59326D01*
X102952Y-59112D01*
X102789Y-58949D01*
X102576Y-58861D01*
X102345Y-58860D01*
X102325Y-58869D01*
X101580Y-58123D01*
X101521Y-58084D01*
X107352Y-58084D01*
X108466Y-59198D01*
X108466Y-59198D01*
X108566Y-59265D01*
X108566Y-59265D01*
X108685Y-59289D01*
X108898Y-59289D01*
X108898Y-59329D01*
X108936Y-59421D01*
X109007Y-59492D01*
X109098Y-59530D01*
X109198Y-59530D01*
X109798Y-59530D01*
X109890Y-59492D01*
X109956Y-59426D01*
X109956Y-62712D01*
X109956Y-62712D01*
G37*
G54D20*
X109956Y-62712D02*
X109711Y-62712D01*
X109711Y-61209D01*
X109552Y-60823D01*
X109256Y-60527D01*
X108871Y-60367D01*
X108453Y-60367D01*
X108067Y-60526D01*
X107771Y-60821D01*
X107611Y-61207D01*
X107611Y-61625D01*
X107770Y-62011D01*
X108065Y-62306D01*
X108451Y-62467D01*
X108869Y-62467D01*
X109255Y-62307D01*
X109551Y-62012D01*
X109711Y-61627D01*
X109711Y-61209D01*
X109711Y-62712D01*
X103045Y-62712D01*
X103045Y-60529D01*
X103034Y-60299D01*
X102966Y-60135D01*
X102868Y-60104D01*
X102531Y-60440D01*
X102868Y-60777D01*
X102966Y-60746D01*
X103045Y-60529D01*
X103045Y-62712D01*
X102797Y-62712D01*
X102797Y-60848D01*
X102460Y-60511D01*
X102389Y-60582D01*
X102389Y-60440D01*
X102052Y-60104D01*
X101954Y-60135D01*
X101875Y-60352D01*
X101886Y-60582D01*
X101954Y-60746D01*
X102052Y-60777D01*
X102389Y-60440D01*
X102389Y-60582D01*
X102123Y-60848D01*
X102154Y-60947D01*
X102371Y-61025D01*
X102602Y-61015D01*
X102766Y-60947D01*
X102797Y-60848D01*
X102797Y-62712D01*
X85302Y-62712D01*
X85302Y-61209D01*
X85142Y-60823D01*
X84847Y-60527D01*
X84461Y-60367D01*
X84044Y-60367D01*
X83657Y-60526D01*
X83362Y-60821D01*
X83202Y-61207D01*
X83201Y-61625D01*
X83361Y-62011D01*
X83656Y-62306D01*
X84042Y-62467D01*
X84459Y-62467D01*
X84845Y-62307D01*
X85141Y-62012D01*
X85301Y-61627D01*
X85302Y-61209D01*
X85302Y-62712D01*
X82956Y-62712D01*
X82956Y-58524D01*
X83022Y-58590D01*
X83114Y-58628D01*
X83214Y-58628D01*
X83814Y-58628D01*
X83905Y-58590D01*
X83976Y-58520D01*
X84014Y-58428D01*
X84014Y-58387D01*
X84592Y-58387D01*
X84594Y-58391D01*
X84741Y-58539D01*
X84934Y-58619D01*
X85143Y-58619D01*
X85336Y-58539D01*
X85484Y-58392D01*
X85564Y-58199D01*
X85564Y-57990D01*
X85564Y-54990D01*
X85484Y-54797D01*
X85337Y-54649D01*
X85144Y-54569D01*
X84935Y-54569D01*
X84742Y-54649D01*
X84605Y-54785D01*
X84493Y-54785D01*
X84364Y-54656D01*
X84164Y-54572D01*
X83947Y-54572D01*
X83746Y-54655D01*
X83593Y-54808D01*
X83509Y-55009D01*
X83509Y-55226D01*
X83592Y-55426D01*
X83745Y-55580D01*
X83946Y-55663D01*
X84163Y-55663D01*
X84363Y-55580D01*
X84517Y-55427D01*
X84527Y-55403D01*
X84606Y-55403D01*
X84741Y-55539D01*
X84934Y-55619D01*
X85143Y-55619D01*
X85336Y-55539D01*
X85484Y-55392D01*
X85564Y-55199D01*
X85564Y-54990D01*
X85564Y-57990D01*
X85484Y-57797D01*
X85337Y-57649D01*
X85144Y-57569D01*
X84935Y-57569D01*
X84742Y-57649D01*
X84621Y-57769D01*
X84019Y-57769D01*
X84019Y-57160D01*
X84008Y-56941D01*
X83945Y-56790D01*
X83850Y-56763D01*
X83779Y-56834D01*
X83779Y-56692D01*
X83752Y-56597D01*
X83546Y-56523D01*
X83327Y-56534D01*
X83176Y-56597D01*
X83149Y-56692D01*
X83464Y-57008D01*
X83779Y-56692D01*
X83779Y-56834D01*
X83535Y-57078D01*
X83850Y-57393D01*
X83945Y-57366D01*
X84019Y-57160D01*
X84019Y-57769D01*
X84014Y-57769D01*
X84014Y-57729D01*
X83976Y-57637D01*
X83906Y-57566D01*
X83814Y-57528D01*
X83761Y-57528D01*
X83779Y-57464D01*
X83464Y-57149D01*
X83149Y-57464D01*
X83167Y-57528D01*
X83115Y-57528D01*
X83023Y-57566D01*
X82956Y-57633D01*
X82956Y-57302D01*
X82983Y-57366D01*
X83078Y-57393D01*
X83393Y-57078D01*
X83078Y-56763D01*
X82983Y-56790D01*
X82956Y-56865D01*
X82956Y-50423D01*
X82998Y-50523D01*
X83152Y-50678D01*
X83155Y-50679D01*
X83155Y-52952D01*
X83179Y-53071D01*
X83246Y-53171D01*
X84155Y-54080D01*
X84255Y-54147D01*
X84255Y-54147D01*
X84374Y-54171D01*
X85393Y-54171D01*
X85528Y-54307D01*
X85721Y-54387D01*
X85930Y-54387D01*
X86123Y-54307D01*
X86271Y-54159D01*
X86351Y-53967D01*
X86351Y-53758D01*
X86272Y-53565D01*
X86124Y-53417D01*
X85931Y-53337D01*
X85722Y-53337D01*
X85529Y-53416D01*
X85393Y-53553D01*
X84502Y-53553D01*
X83773Y-52824D01*
X83773Y-52638D01*
X83946Y-52710D01*
X84163Y-52710D01*
X84363Y-52627D01*
X84517Y-52474D01*
X84600Y-52274D01*
X84600Y-52057D01*
X84600Y-52057D01*
X85439Y-51217D01*
X85528Y-51307D01*
X85721Y-51387D01*
X85930Y-51387D01*
X86123Y-51307D01*
X86260Y-51171D01*
X86574Y-51171D01*
X86710Y-51307D01*
X86902Y-51387D01*
X87111Y-51387D01*
X87304Y-51307D01*
X87452Y-51159D01*
X87532Y-50967D01*
X87532Y-50758D01*
X87454Y-50568D01*
X87454Y-50553D01*
X87742Y-50553D01*
X87742Y-53248D01*
X87776Y-53419D01*
X87865Y-53553D01*
X87441Y-53553D01*
X87305Y-53417D01*
X87112Y-53337D01*
X86903Y-53337D01*
X86710Y-53416D01*
X86563Y-53564D01*
X86482Y-53757D01*
X86482Y-53966D01*
X86562Y-54159D01*
X86710Y-54307D01*
X86902Y-54387D01*
X87111Y-54387D01*
X87304Y-54307D01*
X87441Y-54171D01*
X87986Y-54171D01*
X89431Y-55616D01*
X89431Y-56155D01*
X89469Y-56247D01*
X89539Y-56317D01*
X89631Y-56355D01*
X89731Y-56355D01*
X90281Y-56355D01*
X90373Y-56317D01*
X90443Y-56247D01*
X90481Y-56155D01*
X90481Y-56056D01*
X90481Y-56056D01*
X90511Y-56127D01*
X90546Y-56162D01*
X90324Y-56383D01*
X89202Y-56383D01*
X88734Y-55915D01*
X88734Y-55699D01*
X88651Y-55498D01*
X88498Y-55345D01*
X88297Y-55261D01*
X88080Y-55261D01*
X87880Y-55344D01*
X87726Y-55497D01*
X87643Y-55698D01*
X87643Y-55915D01*
X87726Y-56115D01*
X87879Y-56269D01*
X88080Y-56352D01*
X88296Y-56352D01*
X88297Y-56352D01*
X88856Y-56911D01*
X88856Y-56911D01*
X88956Y-56978D01*
X88956Y-56978D01*
X89074Y-57001D01*
X90452Y-57001D01*
X90504Y-56991D01*
X89931Y-57564D01*
X87106Y-57564D01*
X87106Y-57564D01*
X87082Y-57569D01*
X86988Y-57588D01*
X86887Y-57655D01*
X86887Y-57655D01*
X86198Y-58344D01*
X86131Y-58444D01*
X86108Y-58562D01*
X86108Y-61122D01*
X86131Y-61240D01*
X86198Y-61340D01*
X86986Y-62127D01*
X87086Y-62194D01*
X87086Y-62194D01*
X87204Y-62218D01*
X99925Y-62218D01*
X100043Y-62194D01*
X100043Y-62194D01*
X100143Y-62127D01*
X100404Y-61867D01*
X100596Y-61867D01*
X100789Y-61787D01*
X100936Y-61640D01*
X101017Y-61447D01*
X101017Y-61238D01*
X100937Y-61045D01*
X100789Y-60897D01*
X100597Y-60817D01*
X100388Y-60817D01*
X100195Y-60897D01*
X100061Y-61030D01*
X100061Y-60918D01*
X100050Y-60709D01*
X99992Y-60569D01*
X99899Y-60545D01*
X99828Y-60616D01*
X99828Y-60474D01*
X99804Y-60381D01*
X99607Y-60312D01*
X99398Y-60323D01*
X99258Y-60381D01*
X99234Y-60474D01*
X99531Y-60771D01*
X99828Y-60474D01*
X99828Y-60616D01*
X99602Y-60842D01*
X99899Y-61139D01*
X99992Y-61115D01*
X100061Y-60918D01*
X100061Y-61030D01*
X100047Y-61044D01*
X99967Y-61237D01*
X99967Y-61430D01*
X99828Y-61569D01*
X99828Y-61210D01*
X99531Y-60913D01*
X99460Y-60983D01*
X99460Y-60842D01*
X99163Y-60545D01*
X99070Y-60569D01*
X99001Y-60766D01*
X99012Y-60975D01*
X99070Y-61115D01*
X99163Y-61139D01*
X99460Y-60842D01*
X99460Y-60983D01*
X99234Y-61210D01*
X99258Y-61303D01*
X99455Y-61372D01*
X99664Y-61361D01*
X99804Y-61303D01*
X99828Y-61210D01*
X99828Y-61569D01*
X99797Y-61600D01*
X97061Y-61600D01*
X97061Y-60918D01*
X97050Y-60709D01*
X96992Y-60569D01*
X96899Y-60545D01*
X96828Y-60616D01*
X96828Y-60474D01*
X96804Y-60381D01*
X96607Y-60312D01*
X96398Y-60323D01*
X96258Y-60381D01*
X96234Y-60474D01*
X96531Y-60771D01*
X96828Y-60474D01*
X96828Y-60616D01*
X96602Y-60842D01*
X96899Y-61139D01*
X96992Y-61115D01*
X97061Y-60918D01*
X97061Y-61600D01*
X96828Y-61600D01*
X96828Y-61210D01*
X96531Y-60913D01*
X96460Y-60983D01*
X96460Y-60842D01*
X96163Y-60545D01*
X96070Y-60569D01*
X96001Y-60766D01*
X96012Y-60975D01*
X96070Y-61115D01*
X96163Y-61139D01*
X96460Y-60842D01*
X96460Y-60983D01*
X96234Y-61210D01*
X96258Y-61303D01*
X96455Y-61372D01*
X96664Y-61361D01*
X96804Y-61303D01*
X96828Y-61210D01*
X96828Y-61600D01*
X95336Y-61600D01*
X95336Y-60918D01*
X95325Y-60709D01*
X95267Y-60569D01*
X95174Y-60545D01*
X95104Y-60616D01*
X95104Y-60474D01*
X95079Y-60381D01*
X94882Y-60312D01*
X94674Y-60323D01*
X94534Y-60381D01*
X94510Y-60474D01*
X94807Y-60771D01*
X95104Y-60474D01*
X95104Y-60616D01*
X94877Y-60842D01*
X95174Y-61139D01*
X95267Y-61115D01*
X95336Y-60918D01*
X95336Y-61600D01*
X95104Y-61600D01*
X95104Y-61210D01*
X94807Y-60913D01*
X94736Y-60983D01*
X94736Y-60842D01*
X94439Y-60545D01*
X94346Y-60569D01*
X94277Y-60766D01*
X94288Y-60975D01*
X94346Y-61115D01*
X94439Y-61139D01*
X94736Y-60842D01*
X94736Y-60983D01*
X94510Y-61210D01*
X94534Y-61303D01*
X94731Y-61372D01*
X94939Y-61361D01*
X95079Y-61303D01*
X95104Y-61210D01*
X95104Y-61600D01*
X92336Y-61600D01*
X92336Y-60918D01*
X92325Y-60709D01*
X92267Y-60569D01*
X92174Y-60545D01*
X92104Y-60616D01*
X92104Y-60474D01*
X92079Y-60381D01*
X91882Y-60312D01*
X91674Y-60323D01*
X91534Y-60381D01*
X91510Y-60474D01*
X91807Y-60771D01*
X92104Y-60474D01*
X92104Y-60616D01*
X91877Y-60842D01*
X92174Y-61139D01*
X92267Y-61115D01*
X92336Y-60918D01*
X92336Y-61600D01*
X92104Y-61600D01*
X92104Y-61210D01*
X91807Y-60913D01*
X91736Y-60983D01*
X91736Y-60842D01*
X91439Y-60545D01*
X91346Y-60569D01*
X91277Y-60766D01*
X91288Y-60975D01*
X91346Y-61115D01*
X91439Y-61139D01*
X91736Y-60842D01*
X91736Y-60983D01*
X91510Y-61210D01*
X91534Y-61303D01*
X91731Y-61372D01*
X91939Y-61361D01*
X92079Y-61303D01*
X92104Y-61210D01*
X92104Y-61600D01*
X90612Y-61600D01*
X90612Y-60918D01*
X90601Y-60709D01*
X90543Y-60569D01*
X90450Y-60545D01*
X90379Y-60616D01*
X90379Y-60474D01*
X90355Y-60381D01*
X90158Y-60312D01*
X89949Y-60323D01*
X89809Y-60381D01*
X89785Y-60474D01*
X90082Y-60771D01*
X90379Y-60474D01*
X90379Y-60616D01*
X90153Y-60842D01*
X90450Y-61139D01*
X90543Y-61115D01*
X90612Y-60918D01*
X90612Y-61600D01*
X90379Y-61600D01*
X90379Y-61210D01*
X90082Y-60913D01*
X90011Y-60983D01*
X90011Y-60842D01*
X89714Y-60545D01*
X89622Y-60569D01*
X89552Y-60766D01*
X89564Y-60975D01*
X89622Y-61115D01*
X89714Y-61139D01*
X90011Y-60842D01*
X90011Y-60983D01*
X89785Y-61210D01*
X89809Y-61303D01*
X90006Y-61372D01*
X90215Y-61361D01*
X90355Y-61303D01*
X90379Y-61210D01*
X90379Y-61600D01*
X87612Y-61600D01*
X87612Y-60918D01*
X87601Y-60709D01*
X87543Y-60569D01*
X87450Y-60545D01*
X87379Y-60616D01*
X87153Y-60842D01*
X87450Y-61139D01*
X87543Y-61115D01*
X87612Y-60918D01*
X87612Y-61600D01*
X87332Y-61600D01*
X87099Y-61367D01*
X87215Y-61361D01*
X87355Y-61303D01*
X87379Y-61210D01*
X87082Y-60913D01*
X87077Y-60918D01*
X87006Y-60848D01*
X87011Y-60842D01*
X87006Y-60836D01*
X87077Y-60766D01*
X87082Y-60771D01*
X87379Y-60474D01*
X87355Y-60381D01*
X87158Y-60312D01*
X86949Y-60323D01*
X86809Y-60381D01*
X86785Y-60474D01*
X86740Y-60429D01*
X86726Y-60443D01*
X86726Y-59228D01*
X86784Y-59287D01*
X86977Y-59367D01*
X87186Y-59367D01*
X87379Y-59287D01*
X87516Y-59151D01*
X89649Y-59151D01*
X89784Y-59287D01*
X89977Y-59367D01*
X90186Y-59367D01*
X90379Y-59287D01*
X90516Y-59151D01*
X90665Y-59151D01*
X90783Y-59128D01*
X90783Y-59128D01*
X90883Y-59061D01*
X91335Y-58609D01*
X91282Y-58737D01*
X91281Y-58946D01*
X91361Y-59139D01*
X91509Y-59287D01*
X91702Y-59367D01*
X91911Y-59367D01*
X92104Y-59287D01*
X92240Y-59151D01*
X94291Y-59151D01*
X94373Y-59151D01*
X94509Y-59287D01*
X94702Y-59367D01*
X94911Y-59367D01*
X95104Y-59287D01*
X95251Y-59140D01*
X95331Y-58947D01*
X95332Y-58738D01*
X95252Y-58545D01*
X95104Y-58397D01*
X94911Y-58317D01*
X94703Y-58317D01*
X94600Y-58359D01*
X94600Y-56216D01*
X94647Y-56264D01*
X94647Y-57653D01*
X94671Y-57771D01*
X94738Y-57872D01*
X95927Y-59061D01*
X95927Y-59061D01*
X96027Y-59128D01*
X96027Y-59128D01*
X96086Y-59139D01*
X96233Y-59287D01*
X96426Y-59367D01*
X96635Y-59367D01*
X96828Y-59287D01*
X96965Y-59151D01*
X99098Y-59151D01*
X99233Y-59287D01*
X99426Y-59367D01*
X99635Y-59367D01*
X99828Y-59287D01*
X99976Y-59140D01*
X100056Y-58947D01*
X100056Y-58738D01*
X99976Y-58545D01*
X99829Y-58397D01*
X99636Y-58317D01*
X99427Y-58317D01*
X99234Y-58397D01*
X99097Y-58533D01*
X97486Y-58533D01*
X97486Y-57162D01*
X97475Y-56953D01*
X97417Y-56813D01*
X97324Y-56789D01*
X97253Y-56860D01*
X97253Y-56718D01*
X97253Y-56198D01*
X96956Y-55901D01*
X96659Y-56198D01*
X96683Y-56291D01*
X96880Y-56360D01*
X97089Y-56349D01*
X97229Y-56291D01*
X97253Y-56198D01*
X97253Y-56718D01*
X97229Y-56626D01*
X97032Y-56556D01*
X96823Y-56568D01*
X96683Y-56626D01*
X96659Y-56718D01*
X96956Y-57015D01*
X97253Y-56718D01*
X97253Y-56860D01*
X97027Y-57086D01*
X97324Y-57383D01*
X97417Y-57359D01*
X97486Y-57162D01*
X97486Y-58533D01*
X97253Y-58533D01*
X97253Y-57454D01*
X96956Y-57157D01*
X96659Y-57454D01*
X96683Y-57547D01*
X96880Y-57616D01*
X97089Y-57605D01*
X97229Y-57547D01*
X97253Y-57454D01*
X97253Y-58533D01*
X96964Y-58533D01*
X96829Y-58397D01*
X96636Y-58317D01*
X96427Y-58317D01*
X96234Y-58397D01*
X96185Y-58445D01*
X95265Y-57525D01*
X95265Y-56264D01*
X95401Y-56128D01*
X95456Y-55995D01*
X95509Y-56124D01*
X95509Y-56793D01*
X95431Y-56981D01*
X95431Y-57190D01*
X95511Y-57383D01*
X95658Y-57531D01*
X95851Y-57611D01*
X96060Y-57611D01*
X96253Y-57531D01*
X96401Y-57384D01*
X96454Y-57257D01*
X96496Y-57359D01*
X96588Y-57383D01*
X96885Y-57086D01*
X96588Y-56789D01*
X96496Y-56813D01*
X96457Y-56923D01*
X96403Y-56793D01*
X96403Y-56123D01*
X96454Y-56001D01*
X96496Y-56103D01*
X96588Y-56127D01*
X96885Y-55830D01*
X96588Y-55533D01*
X96496Y-55557D01*
X96457Y-55667D01*
X96402Y-55533D01*
X96311Y-55443D01*
X96311Y-55443D01*
X96272Y-55384D01*
X96253Y-55365D01*
X96253Y-53198D01*
X95956Y-52901D01*
X95659Y-53198D01*
X95683Y-53291D01*
X95880Y-53360D01*
X96089Y-53349D01*
X96229Y-53291D01*
X96253Y-53198D01*
X96253Y-55365D01*
X95394Y-54506D01*
X95249Y-54409D01*
X95078Y-54375D01*
X89948Y-54375D01*
X88635Y-53062D01*
X88635Y-50553D01*
X89854Y-50553D01*
X90025Y-50519D01*
X90025Y-50519D01*
X90170Y-50422D01*
X90940Y-49651D01*
X92726Y-49651D01*
X92854Y-49704D01*
X92722Y-49759D01*
X92574Y-49906D01*
X92544Y-49979D01*
X92544Y-49979D01*
X92544Y-49879D01*
X92506Y-49787D01*
X92436Y-49717D01*
X92344Y-49679D01*
X92132Y-49679D01*
X92069Y-49742D01*
X92069Y-50154D01*
X92077Y-50154D01*
X92077Y-50254D01*
X92069Y-50254D01*
X92069Y-50667D01*
X92132Y-50729D01*
X92344Y-50729D01*
X92436Y-50691D01*
X92506Y-50621D01*
X92544Y-50529D01*
X92544Y-50430D01*
X92544Y-50430D01*
X92574Y-50501D01*
X92710Y-50638D01*
X92710Y-50893D01*
X92734Y-51011D01*
X92801Y-51112D01*
X93994Y-52305D01*
X93852Y-52305D01*
X93659Y-52385D01*
X93511Y-52532D01*
X93456Y-52665D01*
X93402Y-52533D01*
X93254Y-52385D01*
X93061Y-52305D01*
X92852Y-52305D01*
X92659Y-52385D01*
X92511Y-52532D01*
X92456Y-52665D01*
X92402Y-52533D01*
X92254Y-52385D01*
X92061Y-52305D01*
X91969Y-52305D01*
X91969Y-50667D01*
X91969Y-50254D01*
X91969Y-50154D01*
X91969Y-49742D01*
X91907Y-49679D01*
X91695Y-49679D01*
X91603Y-49717D01*
X91532Y-49787D01*
X91494Y-49879D01*
X91494Y-49979D01*
X91494Y-50092D01*
X91557Y-50154D01*
X91969Y-50154D01*
X91969Y-50254D01*
X91557Y-50254D01*
X91494Y-50317D01*
X91494Y-50430D01*
X91494Y-50529D01*
X91532Y-50621D01*
X91603Y-50691D01*
X91695Y-50729D01*
X91907Y-50729D01*
X91969Y-50667D01*
X91969Y-52305D01*
X91852Y-52305D01*
X91659Y-52385D01*
X91511Y-52532D01*
X91456Y-52665D01*
X91402Y-52533D01*
X91254Y-52385D01*
X91061Y-52305D01*
X90852Y-52305D01*
X90659Y-52385D01*
X90511Y-52532D01*
X90456Y-52665D01*
X90402Y-52533D01*
X90254Y-52385D01*
X90061Y-52305D01*
X89852Y-52305D01*
X89659Y-52385D01*
X89511Y-52532D01*
X89431Y-52725D01*
X89431Y-52934D01*
X89511Y-53127D01*
X89658Y-53275D01*
X89851Y-53355D01*
X90060Y-53355D01*
X90253Y-53276D01*
X90401Y-53128D01*
X90456Y-52995D01*
X90511Y-53127D01*
X90658Y-53275D01*
X90851Y-53355D01*
X91060Y-53355D01*
X91253Y-53276D01*
X91401Y-53128D01*
X91456Y-52995D01*
X91511Y-53127D01*
X91658Y-53275D01*
X91851Y-53355D01*
X92060Y-53355D01*
X92253Y-53276D01*
X92401Y-53128D01*
X92456Y-52995D01*
X92511Y-53127D01*
X92658Y-53275D01*
X92851Y-53355D01*
X93060Y-53355D01*
X93253Y-53276D01*
X93401Y-53128D01*
X93456Y-52995D01*
X93511Y-53127D01*
X93658Y-53275D01*
X93851Y-53355D01*
X94060Y-53355D01*
X94253Y-53276D01*
X94401Y-53128D01*
X94456Y-52995D01*
X94511Y-53127D01*
X94658Y-53275D01*
X94851Y-53355D01*
X95060Y-53355D01*
X95253Y-53276D01*
X95401Y-53128D01*
X95454Y-53001D01*
X95496Y-53103D01*
X95588Y-53127D01*
X95885Y-52830D01*
X95588Y-52533D01*
X95496Y-52557D01*
X95457Y-52667D01*
X95402Y-52533D01*
X95254Y-52385D01*
X95061Y-52305D01*
X94868Y-52305D01*
X93328Y-50765D01*
X93328Y-50638D01*
X93464Y-50502D01*
X93544Y-50309D01*
X93544Y-50100D01*
X93465Y-49907D01*
X93317Y-49759D01*
X93184Y-49704D01*
X93313Y-49651D01*
X94554Y-49651D01*
X94560Y-49657D01*
X94753Y-49737D01*
X94962Y-49737D01*
X95155Y-49657D01*
X95303Y-49510D01*
X95383Y-49317D01*
X95383Y-49108D01*
X95303Y-48915D01*
X95156Y-48767D01*
X94963Y-48687D01*
X94754Y-48687D01*
X94583Y-48757D01*
X93312Y-48757D01*
X93124Y-48679D01*
X92915Y-48679D01*
X92726Y-48757D01*
X91091Y-48757D01*
X91253Y-48690D01*
X91406Y-48537D01*
X91490Y-48337D01*
X91490Y-48120D01*
X91490Y-48120D01*
X92714Y-46895D01*
X92781Y-46795D01*
X92781Y-46795D01*
X92805Y-46677D01*
X92805Y-46004D01*
X92940Y-45868D01*
X93020Y-45675D01*
X93021Y-45466D01*
X92941Y-45273D01*
X92793Y-45126D01*
X92600Y-45045D01*
X92392Y-45045D01*
X92199Y-45125D01*
X92051Y-45273D01*
X91971Y-45465D01*
X91970Y-45674D01*
X92050Y-45867D01*
X92187Y-46004D01*
X92187Y-46549D01*
X91052Y-47683D01*
X90836Y-47682D01*
X90636Y-47765D01*
X90482Y-47919D01*
X90399Y-48119D01*
X90399Y-48336D01*
X90482Y-48536D01*
X90635Y-48690D01*
X90798Y-48757D01*
X90755Y-48757D01*
X90584Y-48791D01*
X90439Y-48888D01*
X89669Y-49659D01*
X88718Y-49659D01*
X88718Y-49182D01*
X88707Y-48973D01*
X88649Y-48833D01*
X88556Y-48809D01*
X88259Y-49106D01*
X88556Y-49403D01*
X88649Y-49379D01*
X88718Y-49182D01*
X88718Y-49659D01*
X88481Y-49659D01*
X88360Y-49608D01*
X88461Y-49566D01*
X88486Y-49474D01*
X88188Y-49177D01*
X88118Y-49247D01*
X87891Y-49474D01*
X87916Y-49566D01*
X88026Y-49605D01*
X87895Y-49659D01*
X87423Y-49659D01*
X87420Y-49647D01*
X87420Y-49647D01*
X87323Y-49502D01*
X87030Y-49210D01*
X86953Y-49021D01*
X86805Y-48874D01*
X86733Y-48843D01*
X86832Y-48843D01*
X86924Y-48805D01*
X86994Y-48735D01*
X87032Y-48643D01*
X87032Y-48544D01*
X87032Y-48544D01*
X87062Y-48615D01*
X87210Y-48763D01*
X87402Y-48843D01*
X87611Y-48843D01*
X87784Y-48772D01*
X87821Y-48809D01*
X87728Y-48833D01*
X87659Y-49030D01*
X87670Y-49239D01*
X87728Y-49379D01*
X87821Y-49403D01*
X88118Y-49106D01*
X88112Y-49100D01*
X88183Y-49030D01*
X88188Y-49035D01*
X88486Y-48738D01*
X88461Y-48645D01*
X88264Y-48576D01*
X88056Y-48587D01*
X87928Y-48640D01*
X87952Y-48616D01*
X88032Y-48423D01*
X88032Y-48214D01*
X87954Y-48025D01*
X87954Y-46456D01*
X87920Y-46285D01*
X87823Y-46140D01*
X87823Y-46140D01*
X87637Y-45954D01*
X87561Y-45769D01*
X87561Y-44994D01*
X87620Y-44935D01*
X105468Y-44935D01*
X105487Y-44954D01*
X105689Y-45038D01*
X105908Y-45038D01*
X106110Y-44954D01*
X106249Y-44816D01*
X106249Y-44837D01*
X106287Y-44929D01*
X106297Y-44940D01*
X106121Y-45116D01*
X98824Y-45116D01*
X98636Y-45038D01*
X98427Y-45037D01*
X98234Y-45117D01*
X98086Y-45265D01*
X98006Y-45458D01*
X98006Y-45600D01*
X97757Y-45352D01*
X97657Y-45285D01*
X97539Y-45261D01*
X95929Y-45261D01*
X95793Y-45126D01*
X95600Y-45045D01*
X95392Y-45045D01*
X95199Y-45125D01*
X95051Y-45273D01*
X94971Y-45465D01*
X94970Y-45674D01*
X95050Y-45867D01*
X95198Y-46015D01*
X95391Y-46095D01*
X95600Y-46095D01*
X95793Y-46016D01*
X95929Y-45879D01*
X97411Y-45879D01*
X97606Y-46075D01*
X97581Y-46100D01*
X97581Y-46512D01*
X97589Y-46512D01*
X97589Y-46612D01*
X97581Y-46612D01*
X97581Y-47025D01*
X97643Y-47087D01*
X97856Y-47088D01*
X97947Y-47050D01*
X98018Y-46979D01*
X98056Y-46887D01*
X98056Y-46788D01*
X98056Y-46788D01*
X98086Y-46859D01*
X98233Y-47007D01*
X98426Y-47087D01*
X98635Y-47088D01*
X98828Y-47008D01*
X98976Y-46860D01*
X99056Y-46667D01*
X99056Y-46459D01*
X98976Y-46265D01*
X98829Y-46118D01*
X98696Y-46062D01*
X98824Y-46009D01*
X106307Y-46009D01*
X106478Y-45975D01*
X106478Y-45975D01*
X106623Y-45878D01*
X107115Y-45386D01*
X107115Y-45386D01*
X107212Y-45241D01*
X107246Y-45070D01*
X107246Y-45070D01*
X107246Y-44994D01*
X107311Y-44929D01*
X107349Y-44838D01*
X107349Y-44738D01*
X107349Y-44138D01*
X107311Y-44046D01*
X107241Y-43976D01*
X107149Y-43938D01*
X107049Y-43938D01*
X106449Y-43938D01*
X106357Y-43976D01*
X106287Y-44046D01*
X106249Y-44138D01*
X106249Y-44160D01*
X106111Y-44022D01*
X105909Y-43938D01*
X105690Y-43938D01*
X105488Y-44021D01*
X105468Y-44041D01*
X87620Y-44041D01*
X87555Y-43976D01*
X87464Y-43938D01*
X87364Y-43938D01*
X86764Y-43938D01*
X86672Y-43976D01*
X86602Y-44046D01*
X86564Y-44138D01*
X86564Y-44191D01*
X86500Y-44172D01*
X86429Y-44243D01*
X86429Y-44102D01*
X86402Y-44006D01*
X86195Y-43933D01*
X85977Y-43944D01*
X85826Y-44006D01*
X85798Y-44102D01*
X86114Y-44417D01*
X86429Y-44102D01*
X86429Y-44243D01*
X86184Y-44488D01*
X86500Y-44803D01*
X86564Y-44785D01*
X86564Y-44837D01*
X86602Y-44929D01*
X86667Y-44994D01*
X86667Y-45770D01*
X86616Y-45891D01*
X86574Y-45790D01*
X86481Y-45765D01*
X86429Y-45818D01*
X86429Y-44874D01*
X86114Y-44558D01*
X86043Y-44629D01*
X86043Y-44488D01*
X85728Y-44172D01*
X85632Y-44200D01*
X85559Y-44406D01*
X85570Y-44624D01*
X85632Y-44776D01*
X85728Y-44803D01*
X86043Y-44488D01*
X86043Y-44629D01*
X85798Y-44874D01*
X85826Y-44969D01*
X86032Y-45042D01*
X86250Y-45032D01*
X86402Y-44969D01*
X86429Y-44874D01*
X86429Y-45818D01*
X86411Y-45836D01*
X86411Y-45695D01*
X86386Y-45602D01*
X86189Y-45533D01*
X85981Y-45544D01*
X85841Y-45602D01*
X85817Y-45695D01*
X86114Y-45992D01*
X86411Y-45695D01*
X86411Y-45836D01*
X86184Y-46062D01*
X86481Y-46360D01*
X86574Y-46335D01*
X86613Y-46225D01*
X86668Y-46359D01*
X86816Y-46507D01*
X87005Y-46586D01*
X87061Y-46641D01*
X87061Y-48026D01*
X87032Y-48093D01*
X87032Y-48093D01*
X87032Y-47993D01*
X86994Y-47902D01*
X86924Y-47831D01*
X86832Y-47793D01*
X86620Y-47793D01*
X86557Y-47856D01*
X86557Y-48268D01*
X86565Y-48268D01*
X86565Y-48368D01*
X86557Y-48368D01*
X86557Y-48376D01*
X86457Y-48376D01*
X86457Y-48368D01*
X86457Y-48268D01*
X86457Y-47856D01*
X86411Y-47809D01*
X86411Y-46430D01*
X86114Y-46133D01*
X86043Y-46204D01*
X86043Y-46062D01*
X85746Y-45765D01*
X85653Y-45790D01*
X85584Y-45987D01*
X85595Y-46195D01*
X85653Y-46335D01*
X85746Y-46360D01*
X86043Y-46062D01*
X86043Y-46204D01*
X85817Y-46430D01*
X85841Y-46523D01*
X86038Y-46592D01*
X86246Y-46581D01*
X86386Y-46523D01*
X86411Y-46430D01*
X86411Y-47809D01*
X86395Y-47793D01*
X86183Y-47793D01*
X86091Y-47831D01*
X86021Y-47902D01*
X85982Y-47993D01*
X85982Y-48093D01*
X85982Y-48206D01*
X86045Y-48268D01*
X86457Y-48268D01*
X86457Y-48368D01*
X86045Y-48368D01*
X85982Y-48431D01*
X85982Y-48544D01*
X85982Y-48643D01*
X86021Y-48735D01*
X86091Y-48805D01*
X86183Y-48843D01*
X86282Y-48843D01*
X86210Y-48873D01*
X86074Y-49009D01*
X85302Y-49009D01*
X85302Y-44673D01*
X85142Y-44287D01*
X84847Y-43992D01*
X84461Y-43832D01*
X84044Y-43831D01*
X83657Y-43991D01*
X83362Y-44286D01*
X83202Y-44672D01*
X83201Y-45089D01*
X83361Y-45475D01*
X83656Y-45771D01*
X84042Y-45931D01*
X84459Y-45932D01*
X84845Y-45772D01*
X85141Y-45477D01*
X85301Y-45091D01*
X85302Y-44673D01*
X85302Y-49009D01*
X83975Y-49009D01*
X83931Y-48901D01*
X83792Y-48762D01*
X83814Y-48762D01*
X83906Y-48724D01*
X83976Y-48654D01*
X84014Y-48562D01*
X84014Y-47863D01*
X83976Y-47771D01*
X83906Y-47700D01*
X83814Y-47662D01*
X83715Y-47662D01*
X83577Y-47662D01*
X83514Y-47725D01*
X83514Y-48162D01*
X83952Y-48162D01*
X84014Y-48100D01*
X84014Y-47863D01*
X84014Y-48562D01*
X84014Y-48325D01*
X83952Y-48262D01*
X83514Y-48262D01*
X83514Y-48270D01*
X83414Y-48270D01*
X83414Y-48262D01*
X83406Y-48262D01*
X83406Y-48162D01*
X83414Y-48162D01*
X83414Y-47725D01*
X83352Y-47662D01*
X83214Y-47662D01*
X83114Y-47662D01*
X83022Y-47700D01*
X82956Y-47766D01*
X82956Y-43586D01*
X109956Y-43586D01*
X109956Y-51938D01*
X109915Y-51838D01*
X109760Y-51683D01*
X109711Y-51663D01*
X109711Y-44673D01*
X109552Y-44287D01*
X109256Y-43992D01*
X108871Y-43832D01*
X108453Y-43831D01*
X108067Y-43991D01*
X107771Y-44286D01*
X107611Y-44672D01*
X107611Y-45089D01*
X107770Y-45475D01*
X108065Y-45771D01*
X108451Y-45931D01*
X108869Y-45932D01*
X109255Y-45772D01*
X109551Y-45477D01*
X109711Y-45091D01*
X109711Y-44673D01*
X109711Y-51663D01*
X109558Y-51599D01*
X109339Y-51599D01*
X109137Y-51683D01*
X108982Y-51837D01*
X108981Y-51840D01*
X107001Y-51840D01*
X107001Y-51214D01*
X107001Y-49651D01*
X103627Y-49651D01*
X103627Y-51214D01*
X107001Y-51214D01*
X107001Y-51840D01*
X102279Y-51840D01*
X102161Y-51864D01*
X102060Y-51931D01*
X101738Y-52253D01*
X101671Y-52354D01*
X101665Y-52383D01*
X101659Y-52385D01*
X101511Y-52532D01*
X101456Y-52665D01*
X101402Y-52533D01*
X101254Y-52385D01*
X101061Y-52305D01*
X100852Y-52305D01*
X100659Y-52385D01*
X100511Y-52532D01*
X100456Y-52665D01*
X100402Y-52533D01*
X100254Y-52385D01*
X100061Y-52305D01*
X99852Y-52305D01*
X99750Y-52347D01*
X99750Y-51355D01*
X99739Y-51146D01*
X99681Y-51006D01*
X99588Y-50982D01*
X99517Y-51053D01*
X99517Y-50911D01*
X99493Y-50818D01*
X99296Y-50749D01*
X99087Y-50760D01*
X98947Y-50818D01*
X98923Y-50911D01*
X99220Y-51208D01*
X99517Y-50911D01*
X99517Y-51053D01*
X99291Y-51279D01*
X99588Y-51576D01*
X99681Y-51552D01*
X99750Y-51355D01*
X99750Y-52347D01*
X99659Y-52385D01*
X99517Y-52527D01*
X99517Y-51647D01*
X99220Y-51350D01*
X98923Y-51647D01*
X98947Y-51740D01*
X99144Y-51809D01*
X99353Y-51798D01*
X99493Y-51740D01*
X99517Y-51647D01*
X99517Y-52527D01*
X99511Y-52532D01*
X99456Y-52665D01*
X99402Y-52533D01*
X99254Y-52385D01*
X99061Y-52305D01*
X98852Y-52305D01*
X98659Y-52385D01*
X98511Y-52532D01*
X98456Y-52665D01*
X98403Y-52537D01*
X98403Y-51771D01*
X98517Y-51724D01*
X98665Y-51577D01*
X98717Y-51450D01*
X98759Y-51552D01*
X98852Y-51576D01*
X99149Y-51279D01*
X98852Y-50982D01*
X98759Y-51006D01*
X98721Y-51116D01*
X98665Y-50982D01*
X98518Y-50834D01*
X98329Y-50756D01*
X98305Y-50732D01*
X98305Y-49505D01*
X98383Y-49317D01*
X98383Y-49108D01*
X98303Y-48915D01*
X98156Y-48767D01*
X97963Y-48687D01*
X97754Y-48687D01*
X97561Y-48767D01*
X97481Y-48846D01*
X97481Y-47025D01*
X97481Y-46612D01*
X97481Y-46512D01*
X97481Y-46100D01*
X97418Y-46037D01*
X97206Y-46037D01*
X97115Y-46075D01*
X97044Y-46146D01*
X97006Y-46238D01*
X97006Y-46337D01*
X97006Y-46450D01*
X97068Y-46512D01*
X97481Y-46512D01*
X97481Y-46612D01*
X97068Y-46612D01*
X97006Y-46675D01*
X97006Y-46788D01*
X97006Y-46887D01*
X97044Y-46979D01*
X97115Y-47050D01*
X97206Y-47088D01*
X97418Y-47087D01*
X97481Y-47025D01*
X97481Y-48846D01*
X97413Y-48914D01*
X97333Y-49107D01*
X97333Y-49316D01*
X97411Y-49505D01*
X97411Y-50917D01*
X97445Y-51088D01*
X97542Y-51233D01*
X97598Y-51289D01*
X97543Y-51372D01*
X97509Y-51543D01*
X97509Y-52537D01*
X97456Y-52665D01*
X97402Y-52533D01*
X97254Y-52385D01*
X97061Y-52305D01*
X96872Y-52305D01*
X96872Y-51712D01*
X97007Y-51577D01*
X97087Y-51384D01*
X97088Y-51175D01*
X97008Y-50982D01*
X96860Y-50834D01*
X96667Y-50754D01*
X96459Y-50754D01*
X96265Y-50834D01*
X96118Y-50981D01*
X96065Y-51108D01*
X96023Y-51006D01*
X95930Y-50982D01*
X95860Y-51053D01*
X95860Y-50911D01*
X95835Y-50818D01*
X95638Y-50749D01*
X95430Y-50760D01*
X95290Y-50818D01*
X95265Y-50911D01*
X95562Y-51208D01*
X95860Y-50911D01*
X95860Y-51053D01*
X95633Y-51279D01*
X95930Y-51576D01*
X96023Y-51552D01*
X96062Y-51442D01*
X96117Y-51576D01*
X96253Y-51713D01*
X96253Y-52437D01*
X96258Y-52458D01*
X96253Y-52462D01*
X96229Y-52370D01*
X96032Y-52300D01*
X95860Y-52310D01*
X95860Y-51647D01*
X95562Y-51350D01*
X95492Y-51420D01*
X95492Y-51279D01*
X95195Y-50982D01*
X95102Y-51006D01*
X95033Y-51203D01*
X95044Y-51412D01*
X95102Y-51552D01*
X95195Y-51576D01*
X95492Y-51279D01*
X95492Y-51420D01*
X95265Y-51647D01*
X95290Y-51740D01*
X95487Y-51809D01*
X95695Y-51798D01*
X95835Y-51740D01*
X95860Y-51647D01*
X95860Y-52310D01*
X95823Y-52312D01*
X95683Y-52370D01*
X95659Y-52462D01*
X95956Y-52759D01*
X95962Y-52754D01*
X96032Y-52825D01*
X96027Y-52830D01*
X96324Y-53127D01*
X96417Y-53103D01*
X96455Y-52993D01*
X96511Y-53127D01*
X96658Y-53275D01*
X96851Y-53355D01*
X97060Y-53355D01*
X97253Y-53276D01*
X97401Y-53128D01*
X97456Y-52995D01*
X97511Y-53127D01*
X97658Y-53275D01*
X97851Y-53355D01*
X98060Y-53355D01*
X98253Y-53276D01*
X98401Y-53128D01*
X98456Y-52995D01*
X98511Y-53127D01*
X98658Y-53275D01*
X98851Y-53355D01*
X99060Y-53355D01*
X99253Y-53276D01*
X99401Y-53128D01*
X99456Y-52995D01*
X99511Y-53127D01*
X99658Y-53275D01*
X99851Y-53355D01*
X100060Y-53355D01*
X100253Y-53276D01*
X100401Y-53128D01*
X100456Y-52995D01*
X100511Y-53127D01*
X100658Y-53275D01*
X100851Y-53355D01*
X101060Y-53355D01*
X101253Y-53276D01*
X101401Y-53128D01*
X101456Y-52995D01*
X101511Y-53127D01*
X101658Y-53275D01*
X101851Y-53355D01*
X102060Y-53355D01*
X102253Y-53276D01*
X102401Y-53128D01*
X102456Y-52995D01*
X102511Y-53127D01*
X102658Y-53275D01*
X102851Y-53355D01*
X103017Y-53355D01*
X103029Y-53368D01*
X103129Y-53435D01*
X103129Y-53435D01*
X103248Y-53458D01*
X108981Y-53458D01*
X108982Y-53460D01*
X109120Y-53599D01*
X109099Y-53599D01*
X109007Y-53637D01*
X108937Y-53707D01*
X108898Y-53799D01*
X108898Y-53840D01*
X106775Y-53840D01*
X106775Y-53840D01*
X106752Y-53845D01*
X106657Y-53864D01*
X106557Y-53931D01*
X106557Y-53931D01*
X104966Y-55521D01*
X103389Y-55521D01*
X103254Y-55385D01*
X103061Y-55305D01*
X102852Y-55305D01*
X102659Y-55385D01*
X102511Y-55532D01*
X102456Y-55665D01*
X102402Y-55533D01*
X102254Y-55385D01*
X102061Y-55305D01*
X101852Y-55305D01*
X101659Y-55385D01*
X101511Y-55532D01*
X101456Y-55665D01*
X101402Y-55533D01*
X101254Y-55385D01*
X101061Y-55305D01*
X100852Y-55305D01*
X100659Y-55385D01*
X100511Y-55532D01*
X100456Y-55665D01*
X100402Y-55533D01*
X100254Y-55385D01*
X100061Y-55305D01*
X99852Y-55305D01*
X99659Y-55385D01*
X99511Y-55532D01*
X99456Y-55665D01*
X99402Y-55533D01*
X99254Y-55385D01*
X99061Y-55305D01*
X98852Y-55305D01*
X98659Y-55385D01*
X98511Y-55532D01*
X98456Y-55665D01*
X98402Y-55533D01*
X98254Y-55385D01*
X98061Y-55305D01*
X97852Y-55305D01*
X97659Y-55385D01*
X97511Y-55532D01*
X97459Y-55659D01*
X97417Y-55557D01*
X97324Y-55533D01*
X97253Y-55604D01*
X97253Y-55462D01*
X97229Y-55370D01*
X97032Y-55300D01*
X96823Y-55312D01*
X96683Y-55370D01*
X96659Y-55462D01*
X96956Y-55759D01*
X97253Y-55462D01*
X97253Y-55604D01*
X97027Y-55830D01*
X97324Y-56127D01*
X97417Y-56103D01*
X97455Y-55993D01*
X97511Y-56127D01*
X97658Y-56275D01*
X97851Y-56355D01*
X98060Y-56355D01*
X98253Y-56276D01*
X98401Y-56128D01*
X98456Y-55995D01*
X98511Y-56127D01*
X98658Y-56275D01*
X98851Y-56355D01*
X99044Y-56355D01*
X100506Y-57817D01*
X100388Y-57817D01*
X100195Y-57897D01*
X100047Y-58044D01*
X99967Y-58237D01*
X99967Y-58446D01*
X100046Y-58639D01*
X100194Y-58787D01*
X100387Y-58867D01*
X100596Y-58867D01*
X100789Y-58787D01*
X100925Y-58651D01*
X101234Y-58651D01*
X101888Y-59306D01*
X101880Y-59325D01*
X101880Y-59555D01*
X101968Y-59769D01*
X102131Y-59932D01*
X102152Y-59941D01*
X102123Y-60033D01*
X102460Y-60370D01*
X102797Y-60033D01*
X102768Y-59941D01*
X102788Y-59932D01*
X102952Y-59769D01*
X103040Y-59556D01*
X103040Y-59326D01*
X102952Y-59112D01*
X102789Y-58949D01*
X102576Y-58861D01*
X102345Y-58860D01*
X102325Y-58869D01*
X101580Y-58123D01*
X101521Y-58084D01*
X107352Y-58084D01*
X108466Y-59198D01*
X108466Y-59198D01*
X108566Y-59265D01*
X108566Y-59265D01*
X108685Y-59289D01*
X108898Y-59289D01*
X108898Y-59329D01*
X108936Y-59421D01*
X109007Y-59492D01*
X109098Y-59530D01*
X109198Y-59530D01*
X109798Y-59530D01*
X109890Y-59492D01*
X109956Y-59426D01*
X109956Y-62712D01*
M02*
